G04 #@! TF.GenerationSoftware,KiCad,Pcbnew,6.0.9-8da3e8f707~116~ubuntu22.04.1*
G04 #@! TF.CreationDate,2022-11-27T05:06:29+05:30*
G04 #@! TF.ProjectId,meshy-tron,6d657368-792d-4747-926f-6e2e6b696361,rev?*
G04 #@! TF.SameCoordinates,Original*
G04 #@! TF.FileFunction,Copper,L2,Bot*
G04 #@! TF.FilePolarity,Positive*
%FSLAX46Y46*%
G04 Gerber Fmt 4.6, Leading zero omitted, Abs format (unit mm)*
G04 Created by KiCad (PCBNEW 6.0.9-8da3e8f707~116~ubuntu22.04.1) date 2022-11-27 05:06:29*
%MOMM*%
%LPD*%
G01*
G04 APERTURE LIST*
G04 Aperture macros list*
%AMRoundRect*
0 Rectangle with rounded corners*
0 $1 Rounding radius*
0 $2 $3 $4 $5 $6 $7 $8 $9 X,Y pos of 4 corners*
0 Add a 4 corners polygon primitive as box body*
4,1,4,$2,$3,$4,$5,$6,$7,$8,$9,$2,$3,0*
0 Add four circle primitives for the rounded corners*
1,1,$1+$1,$2,$3*
1,1,$1+$1,$4,$5*
1,1,$1+$1,$6,$7*
1,1,$1+$1,$8,$9*
0 Add four rect primitives between the rounded corners*
20,1,$1+$1,$2,$3,$4,$5,0*
20,1,$1+$1,$4,$5,$6,$7,0*
20,1,$1+$1,$6,$7,$8,$9,0*
20,1,$1+$1,$8,$9,$2,$3,0*%
G04 Aperture macros list end*
G04 #@! TA.AperFunction,ComponentPad*
%ADD10R,1.700000X1.700000*%
G04 #@! TD*
G04 #@! TA.AperFunction,ComponentPad*
%ADD11O,1.700000X1.700000*%
G04 #@! TD*
G04 #@! TA.AperFunction,SMDPad,CuDef*
%ADD12RoundRect,0.237500X0.237500X-0.250000X0.237500X0.250000X-0.237500X0.250000X-0.237500X-0.250000X0*%
G04 #@! TD*
G04 #@! TA.AperFunction,SMDPad,CuDef*
%ADD13RoundRect,0.237500X-0.237500X0.300000X-0.237500X-0.300000X0.237500X-0.300000X0.237500X0.300000X0*%
G04 #@! TD*
G04 #@! TA.AperFunction,ViaPad*
%ADD14C,0.500000*%
G04 #@! TD*
G04 #@! TA.AperFunction,Conductor*
%ADD15C,0.200000*%
G04 #@! TD*
G04 APERTURE END LIST*
D10*
X145034000Y-43180000D03*
X145034000Y-34290000D03*
X108966000Y-45720000D03*
D11*
X108966000Y-43180000D03*
X108966000Y-40640000D03*
X108966000Y-34295000D03*
D10*
X108966000Y-36835000D03*
D12*
X124206000Y-39473500D03*
X124206000Y-41298500D03*
D13*
X122428000Y-39470500D03*
X122428000Y-37745500D03*
D14*
X112014000Y-37084000D03*
X110617000Y-39624000D03*
X128143000Y-46101000D03*
X116775497Y-42799000D03*
X124206000Y-42418000D03*
X116075994Y-42799000D03*
X115720500Y-46355000D03*
X120523000Y-46015500D03*
X120523000Y-44916500D03*
X119380000Y-46355000D03*
X117602000Y-46355000D03*
X134874000Y-36576000D03*
X135128000Y-46609000D03*
X138684000Y-46632500D03*
X129794000Y-41148000D03*
X138684000Y-44831000D03*
X138938000Y-39116000D03*
X138430000Y-38608000D03*
X138430000Y-39624000D03*
X137287000Y-37084000D03*
X137287000Y-36322000D03*
X137287000Y-35306000D03*
X137287000Y-34544000D03*
X134874000Y-35052000D03*
X132207000Y-34671000D03*
X131064000Y-34671000D03*
X122428000Y-36068000D03*
X119761000Y-37846000D03*
X118999000Y-37846000D03*
X117602000Y-41021000D03*
X124587000Y-45466000D03*
X125095000Y-45974000D03*
X125095000Y-44958000D03*
X119507000Y-43434000D03*
X117687500Y-42799000D03*
X113919000Y-42926000D03*
X113919000Y-41021000D03*
X112014000Y-34544000D03*
X112014000Y-32512000D03*
X117348000Y-33020000D03*
X119888000Y-34290000D03*
X118872000Y-34290000D03*
D15*
X112014000Y-38227000D02*
X112014000Y-37084000D01*
X110617000Y-39624000D02*
X112014000Y-38227000D01*
X108966000Y-45720000D02*
X110551000Y-47305000D01*
X110551000Y-47305000D02*
X134432000Y-47305000D01*
X134432000Y-47305000D02*
X135128000Y-46609000D01*
X128143000Y-46101000D02*
X127339000Y-46905000D01*
X127339000Y-46905000D02*
X117009000Y-46905000D01*
X117009000Y-46905000D02*
X116586000Y-46482000D01*
X116840000Y-42863503D02*
X116775497Y-42799000D01*
X116586000Y-46482000D02*
X116586000Y-45339000D01*
X116586000Y-45339000D02*
X116840000Y-45085000D01*
X116840000Y-45085000D02*
X116840000Y-42863503D01*
X116075994Y-42799000D02*
X116075994Y-44960006D01*
X116075994Y-44960006D02*
X115720500Y-45315500D01*
X115720500Y-45315500D02*
X115720500Y-46355000D01*
X124206000Y-41298500D02*
X124206000Y-42418000D01*
X124206000Y-39473500D02*
X122431000Y-39473500D01*
X122431000Y-39473500D02*
X122428000Y-39470500D01*
X120523000Y-44916500D02*
X120523000Y-46015500D01*
X136271000Y-46609000D02*
X135128000Y-46609000D01*
X138684000Y-46632500D02*
X138660500Y-46609000D01*
X138660500Y-46609000D02*
X136271000Y-46609000D01*
X122428000Y-37745500D02*
X122428000Y-36068000D01*
G04 #@! TA.AperFunction,Conductor*
G36*
X145529103Y-29974921D02*
G01*
X145542000Y-29977486D01*
X145554169Y-29975066D01*
X145566581Y-29975066D01*
X145566581Y-29975916D01*
X145577331Y-29975281D01*
X145730710Y-29987352D01*
X145750236Y-29990445D01*
X145924661Y-30032321D01*
X145943455Y-30038427D01*
X146109184Y-30107074D01*
X146126795Y-30116048D01*
X146279742Y-30209775D01*
X146295730Y-30221390D01*
X146432132Y-30337888D01*
X146446110Y-30351866D01*
X146562610Y-30488270D01*
X146574225Y-30504258D01*
X146667952Y-30657205D01*
X146676926Y-30674816D01*
X146745571Y-30840540D01*
X146751679Y-30859339D01*
X146785743Y-31001224D01*
X146793555Y-31033763D01*
X146796648Y-31053290D01*
X146804442Y-31152318D01*
X146808719Y-31206667D01*
X146808084Y-31217419D01*
X146808934Y-31217419D01*
X146808934Y-31229831D01*
X146806514Y-31242000D01*
X146809079Y-31254894D01*
X146811500Y-31279476D01*
X146811500Y-46190524D01*
X146809079Y-46215103D01*
X146806514Y-46228000D01*
X146808934Y-46240169D01*
X146808934Y-46252581D01*
X146808084Y-46252581D01*
X146808719Y-46263331D01*
X146800147Y-46372244D01*
X146796648Y-46416709D01*
X146793555Y-46436236D01*
X146752612Y-46606780D01*
X146751681Y-46610656D01*
X146745573Y-46629455D01*
X146676926Y-46795184D01*
X146667952Y-46812795D01*
X146574225Y-46965742D01*
X146562610Y-46981730D01*
X146449174Y-47114547D01*
X146446112Y-47118132D01*
X146432134Y-47132110D01*
X146295730Y-47248610D01*
X146279742Y-47260225D01*
X146126795Y-47353952D01*
X146109184Y-47362926D01*
X145943455Y-47431573D01*
X145924661Y-47437679D01*
X145780173Y-47472368D01*
X145750237Y-47479555D01*
X145730710Y-47482648D01*
X145577331Y-47494719D01*
X145566581Y-47494084D01*
X145566581Y-47494934D01*
X145554169Y-47494934D01*
X145542000Y-47492514D01*
X145529103Y-47495079D01*
X145504524Y-47497500D01*
X135045029Y-47497500D01*
X134976908Y-47477498D01*
X134930415Y-47423842D01*
X134920311Y-47353568D01*
X134949805Y-47288988D01*
X134955934Y-47282405D01*
X135086908Y-47151431D01*
X135149220Y-47117405D01*
X135178312Y-47114547D01*
X135190998Y-47114780D01*
X135199662Y-47112418D01*
X135321763Y-47079130D01*
X135321765Y-47079129D01*
X135330422Y-47076769D01*
X135453572Y-47001154D01*
X135459595Y-46994500D01*
X135461938Y-46992555D01*
X135527127Y-46964432D01*
X135542422Y-46963500D01*
X138244433Y-46963500D01*
X138312554Y-46983502D01*
X138331391Y-47000073D01*
X138331809Y-46999605D01*
X138338496Y-47005584D01*
X138344276Y-47012460D01*
X138371914Y-47030857D01*
X138457101Y-47087563D01*
X138457103Y-47087564D01*
X138464574Y-47092537D01*
X138473138Y-47095213D01*
X138473141Y-47095214D01*
X138528208Y-47112418D01*
X138602510Y-47135632D01*
X138746998Y-47138280D01*
X138769622Y-47132112D01*
X138877763Y-47102630D01*
X138877765Y-47102629D01*
X138886422Y-47100269D01*
X139009572Y-47024654D01*
X139106551Y-46917514D01*
X139141925Y-46844501D01*
X139165645Y-46795543D01*
X139165645Y-46795542D01*
X139169560Y-46787462D01*
X139193536Y-46644953D01*
X139193688Y-46632500D01*
X139183347Y-46560296D01*
X139174474Y-46498335D01*
X139174473Y-46498333D01*
X139173201Y-46489448D01*
X139167470Y-46476842D01*
X139134166Y-46403594D01*
X139113388Y-46357895D01*
X139107530Y-46351096D01*
X139107527Y-46351092D01*
X139024916Y-46255218D01*
X139024913Y-46255216D01*
X139019056Y-46248418D01*
X138897790Y-46169817D01*
X138867573Y-46160780D01*
X138767938Y-46130982D01*
X138767936Y-46130982D01*
X138759337Y-46128410D01*
X138750363Y-46128355D01*
X138750361Y-46128355D01*
X138687082Y-46127969D01*
X138614827Y-46127528D01*
X138606196Y-46129995D01*
X138606194Y-46129995D01*
X138484509Y-46164772D01*
X138484505Y-46164774D01*
X138475879Y-46167239D01*
X138468288Y-46172028D01*
X138468287Y-46172029D01*
X138368385Y-46235062D01*
X138301150Y-46254500D01*
X135542265Y-46254500D01*
X135474144Y-46234498D01*
X135466112Y-46228465D01*
X135463056Y-46224918D01*
X135447918Y-46215106D01*
X135349324Y-46151200D01*
X135349322Y-46151199D01*
X135341790Y-46146317D01*
X135305929Y-46135592D01*
X135211938Y-46107482D01*
X135211936Y-46107482D01*
X135203337Y-46104910D01*
X135194363Y-46104855D01*
X135194361Y-46104855D01*
X135131082Y-46104469D01*
X135058827Y-46104028D01*
X135050196Y-46106495D01*
X135050194Y-46106495D01*
X134928509Y-46141272D01*
X134928505Y-46141274D01*
X134919879Y-46143739D01*
X134912292Y-46148526D01*
X134912290Y-46148527D01*
X134806769Y-46215106D01*
X134797661Y-46220853D01*
X134791718Y-46227582D01*
X134791717Y-46227583D01*
X134748405Y-46276625D01*
X134701999Y-46329170D01*
X134698185Y-46337293D01*
X134698184Y-46337295D01*
X134687590Y-46359860D01*
X134640583Y-46459982D01*
X134639203Y-46468846D01*
X134639202Y-46468849D01*
X134621996Y-46579359D01*
X134591752Y-46643592D01*
X134586591Y-46649070D01*
X134322066Y-46913595D01*
X134259754Y-46947621D01*
X134232971Y-46950500D01*
X128099029Y-46950500D01*
X128030908Y-46930498D01*
X127984415Y-46876842D01*
X127974311Y-46806568D01*
X128003805Y-46741988D01*
X128009934Y-46735405D01*
X128101908Y-46643431D01*
X128164220Y-46609405D01*
X128193312Y-46606547D01*
X128205998Y-46606780D01*
X128220696Y-46602773D01*
X128336763Y-46571130D01*
X128336765Y-46571129D01*
X128345422Y-46568769D01*
X128468572Y-46493154D01*
X128565551Y-46386014D01*
X128628560Y-46255962D01*
X128652536Y-46113453D01*
X128652688Y-46101000D01*
X128639754Y-46010684D01*
X128633474Y-45966835D01*
X128633473Y-45966833D01*
X128632201Y-45957948D01*
X128572388Y-45826395D01*
X128566530Y-45819596D01*
X128566527Y-45819592D01*
X128483916Y-45723718D01*
X128483913Y-45723716D01*
X128478056Y-45716918D01*
X128413627Y-45675157D01*
X128364324Y-45643200D01*
X128364322Y-45643199D01*
X128356790Y-45638317D01*
X128311503Y-45624773D01*
X128226938Y-45599482D01*
X128226936Y-45599482D01*
X128218337Y-45596910D01*
X128209363Y-45596855D01*
X128209361Y-45596855D01*
X128146082Y-45596469D01*
X128073827Y-45596028D01*
X128065196Y-45598495D01*
X128065194Y-45598495D01*
X127943509Y-45633272D01*
X127943505Y-45633274D01*
X127934879Y-45635739D01*
X127927292Y-45640526D01*
X127927290Y-45640527D01*
X127872405Y-45675157D01*
X127812661Y-45712853D01*
X127806718Y-45719582D01*
X127806717Y-45719583D01*
X127793903Y-45734092D01*
X127716999Y-45821170D01*
X127713185Y-45829293D01*
X127713184Y-45829295D01*
X127699539Y-45858359D01*
X127655583Y-45951982D01*
X127654203Y-45960846D01*
X127654202Y-45960849D01*
X127651576Y-45977718D01*
X127640482Y-46048972D01*
X127636996Y-46071359D01*
X127606752Y-46135592D01*
X127601591Y-46141070D01*
X127229066Y-46513595D01*
X127166754Y-46547621D01*
X127139971Y-46550500D01*
X121003275Y-46550500D01*
X120935154Y-46530498D01*
X120888661Y-46476842D01*
X120878557Y-46406568D01*
X120909861Y-46339944D01*
X120939523Y-46307174D01*
X120939524Y-46307172D01*
X120945551Y-46300514D01*
X120992828Y-46202933D01*
X121004645Y-46178543D01*
X121004645Y-46178542D01*
X121008560Y-46170462D01*
X121032536Y-46027953D01*
X121032688Y-46015500D01*
X121014678Y-45889745D01*
X121013474Y-45881335D01*
X121013473Y-45881333D01*
X121012201Y-45872448D01*
X120952388Y-45740895D01*
X120908047Y-45689435D01*
X120878733Y-45624773D01*
X120877500Y-45607187D01*
X120877500Y-45325252D01*
X120897502Y-45257131D01*
X120910085Y-45240696D01*
X120939526Y-45208170D01*
X120945551Y-45201514D01*
X121001683Y-45085656D01*
X121004645Y-45079543D01*
X121004645Y-45079542D01*
X121008560Y-45071462D01*
X121032536Y-44928953D01*
X121032688Y-44916500D01*
X121020171Y-44829099D01*
X121013474Y-44782335D01*
X121013473Y-44782333D01*
X121012201Y-44773448D01*
X121006259Y-44760378D01*
X120977366Y-44696832D01*
X120952388Y-44641895D01*
X120946530Y-44635096D01*
X120946527Y-44635092D01*
X120863916Y-44539218D01*
X120863913Y-44539216D01*
X120858056Y-44532418D01*
X120736790Y-44453817D01*
X120719921Y-44448772D01*
X120606938Y-44414982D01*
X120606936Y-44414982D01*
X120598337Y-44412410D01*
X120589363Y-44412355D01*
X120589361Y-44412355D01*
X120526082Y-44411969D01*
X120453827Y-44411528D01*
X120445196Y-44413995D01*
X120445194Y-44413995D01*
X120323509Y-44448772D01*
X120323505Y-44448774D01*
X120314879Y-44451239D01*
X120192661Y-44528353D01*
X120096999Y-44636670D01*
X120093185Y-44644793D01*
X120093184Y-44644795D01*
X120073596Y-44686516D01*
X120035583Y-44767482D01*
X120034203Y-44776346D01*
X120034202Y-44776349D01*
X120022560Y-44851123D01*
X120013350Y-44910273D01*
X120014514Y-44919175D01*
X120014514Y-44919178D01*
X120028821Y-45028582D01*
X120032088Y-45053565D01*
X120090289Y-45185839D01*
X120096063Y-45192708D01*
X120138951Y-45243729D01*
X120167472Y-45308745D01*
X120168500Y-45324805D01*
X120168500Y-45607036D01*
X120148498Y-45675157D01*
X120136941Y-45690444D01*
X120096999Y-45735670D01*
X120035583Y-45866482D01*
X120034203Y-45875346D01*
X120034202Y-45875349D01*
X120019958Y-45966835D01*
X120013350Y-46009273D01*
X120014514Y-46018175D01*
X120014514Y-46018178D01*
X120030585Y-46141070D01*
X120032088Y-46152565D01*
X120090289Y-46284839D01*
X120096063Y-46291708D01*
X120139535Y-46343424D01*
X120168056Y-46408440D01*
X120156900Y-46478555D01*
X120109608Y-46531507D01*
X120043084Y-46550500D01*
X118229709Y-46550500D01*
X118161588Y-46530498D01*
X118115095Y-46476842D01*
X118105455Y-46403596D01*
X118111536Y-46367453D01*
X118111688Y-46355000D01*
X118098560Y-46263333D01*
X118092474Y-46220835D01*
X118092473Y-46220833D01*
X118091201Y-46211948D01*
X118031388Y-46080395D01*
X118025530Y-46073596D01*
X118025527Y-46073592D01*
X117942916Y-45977718D01*
X117942913Y-45977716D01*
X117937056Y-45970918D01*
X117815790Y-45892317D01*
X117798921Y-45887272D01*
X117685938Y-45853482D01*
X117685936Y-45853482D01*
X117677337Y-45850910D01*
X117668363Y-45850855D01*
X117668361Y-45850855D01*
X117605082Y-45850469D01*
X117532827Y-45850028D01*
X117524196Y-45852495D01*
X117524194Y-45852495D01*
X117402509Y-45887272D01*
X117402505Y-45887274D01*
X117393879Y-45889739D01*
X117386292Y-45894526D01*
X117386290Y-45894527D01*
X117279254Y-45962062D01*
X117271661Y-45966853D01*
X117265718Y-45973582D01*
X117265717Y-45973583D01*
X117226332Y-46018178D01*
X117175999Y-46075170D01*
X117172185Y-46083294D01*
X117171811Y-46083863D01*
X117117693Y-46129817D01*
X117047321Y-46139217D01*
X116983039Y-46109079D01*
X116945255Y-46048972D01*
X116940500Y-46014685D01*
X116940500Y-45538029D01*
X116960502Y-45469908D01*
X116977405Y-45448934D01*
X117054423Y-45371916D01*
X117069909Y-45359408D01*
X117073134Y-45356474D01*
X117081882Y-45350825D01*
X117101003Y-45326570D01*
X117104559Y-45322569D01*
X117104459Y-45322484D01*
X117107812Y-45318527D01*
X117111494Y-45314845D01*
X117121882Y-45300309D01*
X117125401Y-45295622D01*
X117154946Y-45258143D01*
X117157779Y-45250075D01*
X117162753Y-45243115D01*
X117176420Y-45197414D01*
X117178256Y-45191765D01*
X117191424Y-45154269D01*
X117194050Y-45146792D01*
X117194500Y-45141596D01*
X117194500Y-45138891D01*
X117194597Y-45136635D01*
X117194740Y-45136159D01*
X117194786Y-45136161D01*
X117194799Y-45135962D01*
X117196568Y-45130045D01*
X117194597Y-45079876D01*
X117194500Y-45074930D01*
X117194500Y-43120252D01*
X117207106Y-43065318D01*
X117261057Y-42953962D01*
X117285033Y-42811453D01*
X117285185Y-42799000D01*
X117272392Y-42709670D01*
X117265971Y-42664835D01*
X117265970Y-42664833D01*
X117264698Y-42655948D01*
X117204885Y-42524395D01*
X117199027Y-42517596D01*
X117199024Y-42517592D01*
X117116413Y-42421718D01*
X117116410Y-42421716D01*
X117110553Y-42414918D01*
X116989287Y-42336317D01*
X116972418Y-42331272D01*
X116859435Y-42297482D01*
X116859433Y-42297482D01*
X116850834Y-42294910D01*
X116841860Y-42294855D01*
X116841858Y-42294855D01*
X116778579Y-42294469D01*
X116706324Y-42294028D01*
X116697693Y-42296495D01*
X116697691Y-42296495D01*
X116576006Y-42331272D01*
X116576002Y-42331274D01*
X116567376Y-42333739D01*
X116559785Y-42338528D01*
X116559784Y-42338529D01*
X116492844Y-42380764D01*
X116424559Y-42400198D01*
X116357077Y-42379934D01*
X116297318Y-42341200D01*
X116297316Y-42341199D01*
X116289784Y-42336317D01*
X116272915Y-42331272D01*
X116159932Y-42297482D01*
X116159930Y-42297482D01*
X116151331Y-42294910D01*
X116142357Y-42294855D01*
X116142355Y-42294855D01*
X116079076Y-42294469D01*
X116006821Y-42294028D01*
X115998190Y-42296495D01*
X115998188Y-42296495D01*
X115876503Y-42331272D01*
X115876499Y-42331274D01*
X115867873Y-42333739D01*
X115860286Y-42338526D01*
X115860284Y-42338527D01*
X115793343Y-42380764D01*
X115745655Y-42410853D01*
X115649993Y-42519170D01*
X115588577Y-42649982D01*
X115587197Y-42658846D01*
X115587196Y-42658849D01*
X115567946Y-42782487D01*
X115566344Y-42792773D01*
X115567508Y-42801675D01*
X115567508Y-42801678D01*
X115583918Y-42927164D01*
X115585082Y-42936065D01*
X115643283Y-43068339D01*
X115649057Y-43075208D01*
X115691945Y-43126229D01*
X115720466Y-43191245D01*
X115721494Y-43207305D01*
X115721494Y-44760978D01*
X115701492Y-44829099D01*
X115684589Y-44850073D01*
X115506080Y-45028582D01*
X115490598Y-45041087D01*
X115487371Y-45044023D01*
X115478618Y-45049675D01*
X115459491Y-45073938D01*
X115455941Y-45077933D01*
X115456040Y-45078017D01*
X115452682Y-45081980D01*
X115449006Y-45085656D01*
X115445983Y-45089885D01*
X115445983Y-45089886D01*
X115438646Y-45100152D01*
X115435085Y-45104895D01*
X115412003Y-45134175D01*
X115412001Y-45134179D01*
X115405554Y-45142357D01*
X115402721Y-45150425D01*
X115397747Y-45157385D01*
X115394763Y-45167363D01*
X115384080Y-45203086D01*
X115382244Y-45208735D01*
X115366450Y-45253708D01*
X115366000Y-45258904D01*
X115366000Y-45261609D01*
X115365903Y-45263865D01*
X115365760Y-45264341D01*
X115365714Y-45264339D01*
X115365701Y-45264538D01*
X115363932Y-45270455D01*
X115365011Y-45297918D01*
X115365903Y-45320624D01*
X115366000Y-45325570D01*
X115366000Y-45946536D01*
X115345998Y-46014657D01*
X115334441Y-46029944D01*
X115294499Y-46075170D01*
X115233083Y-46205982D01*
X115231703Y-46214846D01*
X115231702Y-46214849D01*
X115214838Y-46323162D01*
X115210850Y-46348773D01*
X115212014Y-46357675D01*
X115212014Y-46357678D01*
X115228424Y-46483164D01*
X115229588Y-46492065D01*
X115287789Y-46624339D01*
X115379717Y-46733700D01*
X115380776Y-46734960D01*
X115380594Y-46735113D01*
X115415225Y-46790882D01*
X115414123Y-46861870D01*
X115374817Y-46920994D01*
X115309786Y-46949481D01*
X115293792Y-46950500D01*
X110750028Y-46950500D01*
X110681907Y-46930498D01*
X110660933Y-46913595D01*
X110107405Y-46360067D01*
X110073379Y-46297755D01*
X110070500Y-46270972D01*
X110070499Y-44851123D01*
X110070499Y-44844934D01*
X110055734Y-44770699D01*
X109999484Y-44686516D01*
X109915301Y-44630266D01*
X109841067Y-44615500D01*
X108966142Y-44615500D01*
X108090934Y-44615501D01*
X108055182Y-44622612D01*
X108028874Y-44627844D01*
X108028872Y-44627845D01*
X108016699Y-44630266D01*
X108006379Y-44637161D01*
X108006378Y-44637162D01*
X107999295Y-44641895D01*
X107932516Y-44686516D01*
X107876266Y-44770699D01*
X107861500Y-44844933D01*
X107861501Y-46595066D01*
X107867323Y-46624339D01*
X107872377Y-46649747D01*
X107876266Y-46669301D01*
X107883161Y-46679621D01*
X107883162Y-46679622D01*
X107920241Y-46735113D01*
X107932516Y-46753484D01*
X108016699Y-46809734D01*
X108090933Y-46824500D01*
X108247601Y-46824500D01*
X109516970Y-46824499D01*
X109585091Y-46844501D01*
X109606065Y-46861404D01*
X110027066Y-47282405D01*
X110061092Y-47344717D01*
X110056027Y-47415532D01*
X110013480Y-47472368D01*
X109946960Y-47497179D01*
X109937971Y-47497500D01*
X108495476Y-47497500D01*
X108470897Y-47495079D01*
X108458000Y-47492514D01*
X108445831Y-47494934D01*
X108433419Y-47494934D01*
X108433419Y-47494084D01*
X108422669Y-47494719D01*
X108269290Y-47482648D01*
X108249763Y-47479555D01*
X108219827Y-47472368D01*
X108075339Y-47437679D01*
X108056545Y-47431573D01*
X107890816Y-47362926D01*
X107873205Y-47353952D01*
X107720258Y-47260225D01*
X107704270Y-47248610D01*
X107567866Y-47132110D01*
X107553888Y-47118132D01*
X107550826Y-47114547D01*
X107437390Y-46981730D01*
X107425775Y-46965742D01*
X107332048Y-46812795D01*
X107323074Y-46795184D01*
X107254427Y-46629455D01*
X107248319Y-46610656D01*
X107247389Y-46606780D01*
X107206445Y-46436236D01*
X107203352Y-46416709D01*
X107199853Y-46372244D01*
X107191281Y-46263331D01*
X107191916Y-46252581D01*
X107191066Y-46252581D01*
X107191066Y-46240169D01*
X107193486Y-46228000D01*
X107190921Y-46215103D01*
X107188500Y-46190524D01*
X107188500Y-43150964D01*
X107857148Y-43150964D01*
X107870424Y-43353522D01*
X107871845Y-43359118D01*
X107871846Y-43359123D01*
X107892119Y-43438945D01*
X107920392Y-43550269D01*
X107922809Y-43555512D01*
X107960010Y-43636208D01*
X108005377Y-43734616D01*
X108122533Y-43900389D01*
X108267938Y-44042035D01*
X108436720Y-44154812D01*
X108442023Y-44157090D01*
X108442026Y-44157092D01*
X108530707Y-44195192D01*
X108623228Y-44234942D01*
X108696244Y-44251464D01*
X108815579Y-44278467D01*
X108815584Y-44278468D01*
X108821216Y-44279742D01*
X108826987Y-44279969D01*
X108826989Y-44279969D01*
X108886756Y-44282317D01*
X109024053Y-44287712D01*
X109124499Y-44273148D01*
X109219231Y-44259413D01*
X109219236Y-44259412D01*
X109224945Y-44258584D01*
X109230409Y-44256729D01*
X109230414Y-44256728D01*
X109411693Y-44195192D01*
X109411698Y-44195190D01*
X109417165Y-44193334D01*
X109594276Y-44094147D01*
X109656934Y-44042035D01*
X109745913Y-43968031D01*
X109750345Y-43964345D01*
X109880147Y-43808276D01*
X109979334Y-43631165D01*
X109981190Y-43625698D01*
X109981192Y-43625693D01*
X110042728Y-43444414D01*
X110042729Y-43444409D01*
X110044584Y-43438945D01*
X110045412Y-43433236D01*
X110045413Y-43433231D01*
X110073179Y-43241727D01*
X110073712Y-43238053D01*
X110075232Y-43180000D01*
X110056658Y-42977859D01*
X110052196Y-42962037D01*
X110003125Y-42788046D01*
X110003124Y-42788044D01*
X110001557Y-42782487D01*
X109990978Y-42761033D01*
X109914331Y-42605609D01*
X109911776Y-42600428D01*
X109790320Y-42437779D01*
X109641258Y-42299987D01*
X109636375Y-42296906D01*
X109636371Y-42296903D01*
X109474464Y-42194748D01*
X109469581Y-42191667D01*
X109281039Y-42116446D01*
X109275379Y-42115320D01*
X109275375Y-42115319D01*
X109087613Y-42077971D01*
X109087610Y-42077971D01*
X109081946Y-42076844D01*
X109076171Y-42076768D01*
X109076167Y-42076768D01*
X108974793Y-42075441D01*
X108878971Y-42074187D01*
X108873274Y-42075166D01*
X108873273Y-42075166D01*
X108732206Y-42099406D01*
X108678910Y-42108564D01*
X108488463Y-42178824D01*
X108314010Y-42282612D01*
X108309670Y-42286418D01*
X108309666Y-42286421D01*
X108179929Y-42400198D01*
X108161392Y-42416455D01*
X108035720Y-42575869D01*
X108033031Y-42580980D01*
X108033029Y-42580983D01*
X108020073Y-42605609D01*
X107941203Y-42755515D01*
X107881007Y-42949378D01*
X107857148Y-43150964D01*
X107188500Y-43150964D01*
X107188500Y-41595070D01*
X123476500Y-41595070D01*
X123483036Y-41655236D01*
X123532507Y-41787199D01*
X123617026Y-41899974D01*
X123624206Y-41905355D01*
X123722616Y-41979109D01*
X123722618Y-41979110D01*
X123724744Y-41980703D01*
X123729801Y-41984493D01*
X123729254Y-41985223D01*
X123773944Y-42030015D01*
X123788958Y-42099406D01*
X123777344Y-42143825D01*
X123718583Y-42268982D01*
X123717203Y-42277846D01*
X123717202Y-42277849D01*
X123707755Y-42338527D01*
X123696350Y-42411773D01*
X123697514Y-42420675D01*
X123697514Y-42420678D01*
X123712146Y-42532569D01*
X123715088Y-42555065D01*
X123773289Y-42687339D01*
X123779063Y-42694208D01*
X123853270Y-42782487D01*
X123866276Y-42797960D01*
X123873747Y-42802933D01*
X123873748Y-42802934D01*
X123979101Y-42873063D01*
X123979103Y-42873064D01*
X123986574Y-42878037D01*
X123995138Y-42880713D01*
X123995141Y-42880714D01*
X124055542Y-42899585D01*
X124124510Y-42921132D01*
X124268998Y-42923780D01*
X124288530Y-42918455D01*
X124399763Y-42888130D01*
X124399765Y-42888129D01*
X124408422Y-42885769D01*
X124531572Y-42810154D01*
X124628551Y-42703014D01*
X124691560Y-42572962D01*
X124715536Y-42430453D01*
X124715688Y-42418000D01*
X124698052Y-42294855D01*
X124696474Y-42283835D01*
X124696473Y-42283833D01*
X124695201Y-42274948D01*
X124635388Y-42143395D01*
X124638501Y-42141980D01*
X124623273Y-42089686D01*
X124643428Y-42021610D01*
X124682668Y-41985118D01*
X124682199Y-41984493D01*
X124688077Y-41980088D01*
X124688078Y-41980087D01*
X124794974Y-41899974D01*
X124879493Y-41787199D01*
X124928964Y-41655236D01*
X124935500Y-41595070D01*
X124935500Y-41001930D01*
X124928964Y-40941764D01*
X124879493Y-40809801D01*
X124794974Y-40697026D01*
X124682199Y-40612507D01*
X124673798Y-40609357D01*
X124673795Y-40609356D01*
X124595387Y-40579963D01*
X124550236Y-40563036D01*
X124490070Y-40556500D01*
X123921930Y-40556500D01*
X123861764Y-40563036D01*
X123816613Y-40579963D01*
X123738205Y-40609356D01*
X123738202Y-40609357D01*
X123729801Y-40612507D01*
X123617026Y-40697026D01*
X123532507Y-40809801D01*
X123483036Y-40941764D01*
X123476500Y-41001930D01*
X123476500Y-41595070D01*
X107188500Y-41595070D01*
X107188500Y-39617773D01*
X110107350Y-39617773D01*
X110108514Y-39626675D01*
X110108514Y-39626678D01*
X110111739Y-39651338D01*
X110126088Y-39761065D01*
X110184289Y-39893339D01*
X110277276Y-40003960D01*
X110284747Y-40008933D01*
X110284748Y-40008934D01*
X110390101Y-40079063D01*
X110390103Y-40079064D01*
X110397574Y-40084037D01*
X110406138Y-40086713D01*
X110406141Y-40086714D01*
X110466542Y-40105584D01*
X110535510Y-40127132D01*
X110679998Y-40129780D01*
X110699530Y-40124455D01*
X110810763Y-40094130D01*
X110810765Y-40094129D01*
X110819422Y-40091769D01*
X110942572Y-40016154D01*
X111039551Y-39909014D01*
X111084097Y-39817070D01*
X121698500Y-39817070D01*
X121705036Y-39877236D01*
X121716949Y-39909014D01*
X121751356Y-40000793D01*
X121754507Y-40009199D01*
X121839026Y-40121974D01*
X121951801Y-40206493D01*
X121960202Y-40209643D01*
X121960205Y-40209644D01*
X122038613Y-40239037D01*
X122083764Y-40255964D01*
X122143930Y-40262500D01*
X122712070Y-40262500D01*
X122772236Y-40255964D01*
X122817387Y-40239037D01*
X122895795Y-40209644D01*
X122895798Y-40209643D01*
X122904199Y-40206493D01*
X123016974Y-40121974D01*
X123101493Y-40009199D01*
X123104644Y-40000795D01*
X123104645Y-40000793D01*
X123138767Y-39909771D01*
X123181408Y-39853006D01*
X123247970Y-39828306D01*
X123256749Y-39828000D01*
X123394870Y-39828000D01*
X123462991Y-39848002D01*
X123509484Y-39901658D01*
X123512852Y-39909770D01*
X123512853Y-39909771D01*
X123532507Y-39962199D01*
X123617026Y-40074974D01*
X123729801Y-40159493D01*
X123738202Y-40162643D01*
X123738205Y-40162644D01*
X123816613Y-40192037D01*
X123861764Y-40208964D01*
X123921930Y-40215500D01*
X124490070Y-40215500D01*
X124550236Y-40208964D01*
X124595387Y-40192037D01*
X124673795Y-40162644D01*
X124673798Y-40162643D01*
X124682199Y-40159493D01*
X124794974Y-40074974D01*
X124879493Y-39962199D01*
X124899148Y-39909771D01*
X124926190Y-39837635D01*
X124928964Y-39830236D01*
X124935500Y-39770070D01*
X124935500Y-39176930D01*
X124928964Y-39116764D01*
X124879493Y-38984801D01*
X124794974Y-38872026D01*
X124682199Y-38787507D01*
X124673798Y-38784357D01*
X124673795Y-38784356D01*
X124595387Y-38754963D01*
X124550236Y-38738036D01*
X124490070Y-38731500D01*
X123921930Y-38731500D01*
X123861764Y-38738036D01*
X123816613Y-38754963D01*
X123738205Y-38784356D01*
X123738202Y-38784357D01*
X123729801Y-38787507D01*
X123617026Y-38872026D01*
X123532507Y-38984801D01*
X123529357Y-38993202D01*
X123529356Y-38993205D01*
X123512852Y-39037230D01*
X123470210Y-39093994D01*
X123403648Y-39118694D01*
X123394870Y-39119000D01*
X123258999Y-39119000D01*
X123190878Y-39098998D01*
X123144385Y-39045342D01*
X123141017Y-39037230D01*
X123104644Y-38940205D01*
X123104643Y-38940202D01*
X123101493Y-38931801D01*
X123016974Y-38819026D01*
X122904199Y-38734507D01*
X122895798Y-38731357D01*
X122895795Y-38731356D01*
X122881459Y-38725982D01*
X122824694Y-38683340D01*
X122799995Y-38616778D01*
X122815203Y-38547429D01*
X122865489Y-38497311D01*
X122881459Y-38490018D01*
X122895795Y-38484644D01*
X122895798Y-38484643D01*
X122904199Y-38481493D01*
X123016974Y-38396974D01*
X123101493Y-38284199D01*
X123106050Y-38272045D01*
X123148190Y-38159635D01*
X123150964Y-38152236D01*
X123157500Y-38092070D01*
X123157500Y-37398930D01*
X123150964Y-37338764D01*
X123113550Y-37238962D01*
X123104644Y-37215205D01*
X123104643Y-37215202D01*
X123101493Y-37206801D01*
X123016974Y-37094026D01*
X122904199Y-37009507D01*
X122895798Y-37006358D01*
X122895795Y-37006356D01*
X122864270Y-36994538D01*
X122807505Y-36951896D01*
X122782806Y-36885334D01*
X122782500Y-36876556D01*
X122782500Y-36476752D01*
X122802502Y-36408631D01*
X122815085Y-36392196D01*
X122844526Y-36359670D01*
X122850551Y-36353014D01*
X122913560Y-36222962D01*
X122937536Y-36080453D01*
X122937688Y-36068000D01*
X122917201Y-35924948D01*
X122857388Y-35793395D01*
X122851530Y-35786596D01*
X122851527Y-35786592D01*
X122768916Y-35690718D01*
X122768913Y-35690716D01*
X122763056Y-35683918D01*
X122641790Y-35605317D01*
X122624921Y-35600272D01*
X122511938Y-35566482D01*
X122511936Y-35566482D01*
X122503337Y-35563910D01*
X122494363Y-35563855D01*
X122494361Y-35563855D01*
X122431082Y-35563469D01*
X122358827Y-35563028D01*
X122350196Y-35565495D01*
X122350194Y-35565495D01*
X122228509Y-35600272D01*
X122228505Y-35600274D01*
X122219879Y-35602739D01*
X122097661Y-35679853D01*
X122001999Y-35788170D01*
X121940583Y-35918982D01*
X121918350Y-36061773D01*
X121919514Y-36070675D01*
X121919514Y-36070678D01*
X121935924Y-36196164D01*
X121937088Y-36205065D01*
X121995289Y-36337339D01*
X122001063Y-36344208D01*
X122043951Y-36395229D01*
X122072472Y-36460245D01*
X122073500Y-36476305D01*
X122073500Y-36876556D01*
X122053498Y-36944677D01*
X121999842Y-36991170D01*
X121991730Y-36994538D01*
X121960205Y-37006356D01*
X121960202Y-37006358D01*
X121951801Y-37009507D01*
X121839026Y-37094026D01*
X121754507Y-37206801D01*
X121751357Y-37215202D01*
X121751356Y-37215205D01*
X121742450Y-37238962D01*
X121705036Y-37338764D01*
X121698500Y-37398930D01*
X121698500Y-38092070D01*
X121705036Y-38152236D01*
X121707810Y-38159635D01*
X121749951Y-38272045D01*
X121754507Y-38284199D01*
X121839026Y-38396974D01*
X121951801Y-38481493D01*
X121960202Y-38484643D01*
X121960205Y-38484644D01*
X121974541Y-38490018D01*
X122031306Y-38532660D01*
X122056005Y-38599222D01*
X122040797Y-38668571D01*
X121990511Y-38718689D01*
X121974541Y-38725982D01*
X121960205Y-38731356D01*
X121960202Y-38731357D01*
X121951801Y-38734507D01*
X121839026Y-38819026D01*
X121754507Y-38931801D01*
X121751357Y-38940202D01*
X121751356Y-38940205D01*
X121721963Y-39018613D01*
X121705036Y-39063764D01*
X121700082Y-39109365D01*
X121698985Y-39119470D01*
X121698500Y-39123930D01*
X121698500Y-39817070D01*
X111084097Y-39817070D01*
X111102560Y-39778962D01*
X111124032Y-39651338D01*
X111159191Y-39583148D01*
X112228423Y-38513916D01*
X112243909Y-38501408D01*
X112247134Y-38498474D01*
X112255882Y-38492825D01*
X112275003Y-38468570D01*
X112278559Y-38464569D01*
X112278459Y-38464484D01*
X112281812Y-38460527D01*
X112285494Y-38456845D01*
X112295882Y-38442309D01*
X112299401Y-38437622D01*
X112328946Y-38400143D01*
X112331779Y-38392075D01*
X112336753Y-38385115D01*
X112350420Y-38339414D01*
X112352256Y-38333765D01*
X112365424Y-38296269D01*
X112368050Y-38288792D01*
X112368500Y-38283596D01*
X112368500Y-38280891D01*
X112368597Y-38278635D01*
X112368740Y-38278159D01*
X112368786Y-38278161D01*
X112368799Y-38277962D01*
X112370568Y-38272045D01*
X112368597Y-38221876D01*
X112368500Y-38216930D01*
X112368500Y-37492752D01*
X112388502Y-37424631D01*
X112401085Y-37408196D01*
X112430526Y-37375670D01*
X112436551Y-37369014D01*
X112499560Y-37238962D01*
X112523536Y-37096453D01*
X112523688Y-37084000D01*
X112510876Y-36994538D01*
X112504474Y-36949835D01*
X112504473Y-36949833D01*
X112503201Y-36940948D01*
X112443388Y-36809395D01*
X112437530Y-36802596D01*
X112437527Y-36802592D01*
X112354916Y-36706718D01*
X112354913Y-36706716D01*
X112349056Y-36699918D01*
X112227790Y-36621317D01*
X112210921Y-36616272D01*
X112097938Y-36582482D01*
X112097936Y-36582482D01*
X112089337Y-36579910D01*
X112080363Y-36579855D01*
X112080361Y-36579855D01*
X112017082Y-36579469D01*
X111944827Y-36579028D01*
X111936196Y-36581495D01*
X111936194Y-36581495D01*
X111814509Y-36616272D01*
X111814505Y-36616274D01*
X111805879Y-36618739D01*
X111683661Y-36695853D01*
X111587999Y-36804170D01*
X111526583Y-36934982D01*
X111525203Y-36943846D01*
X111525202Y-36943849D01*
X111515470Y-37006356D01*
X111504350Y-37077773D01*
X111505514Y-37086675D01*
X111505514Y-37086678D01*
X111521223Y-37206801D01*
X111523088Y-37221065D01*
X111581289Y-37353339D01*
X111619613Y-37398930D01*
X111629951Y-37411229D01*
X111658472Y-37476245D01*
X111659500Y-37492305D01*
X111659500Y-38027971D01*
X111639498Y-38096092D01*
X111622595Y-38117066D01*
X110657416Y-39082245D01*
X110595104Y-39116271D01*
X110567554Y-39119148D01*
X110559558Y-39119100D01*
X110547827Y-39119028D01*
X110539195Y-39121495D01*
X110417509Y-39156272D01*
X110417505Y-39156274D01*
X110408879Y-39158739D01*
X110286661Y-39235853D01*
X110190999Y-39344170D01*
X110129583Y-39474982D01*
X110107350Y-39617773D01*
X107188500Y-39617773D01*
X107188500Y-34265964D01*
X107857148Y-34265964D01*
X107870424Y-34468522D01*
X107871845Y-34474118D01*
X107871846Y-34474123D01*
X107892107Y-34553899D01*
X107920392Y-34665269D01*
X107922809Y-34670512D01*
X107960010Y-34751208D01*
X108005377Y-34849616D01*
X108122533Y-35015389D01*
X108126675Y-35019424D01*
X108154484Y-35046514D01*
X108267938Y-35157035D01*
X108436720Y-35269812D01*
X108442023Y-35272090D01*
X108442026Y-35272092D01*
X108574060Y-35328818D01*
X108623228Y-35349942D01*
X108692864Y-35365699D01*
X108815579Y-35393467D01*
X108815584Y-35393468D01*
X108821216Y-35394742D01*
X108826987Y-35394969D01*
X108826989Y-35394969D01*
X108886756Y-35397317D01*
X109024053Y-35402712D01*
X109124499Y-35388148D01*
X109219231Y-35374413D01*
X109219236Y-35374412D01*
X109224945Y-35373584D01*
X109230409Y-35371729D01*
X109230414Y-35371728D01*
X109411693Y-35310192D01*
X109411698Y-35310190D01*
X109417165Y-35308334D01*
X109594276Y-35209147D01*
X109605407Y-35199890D01*
X109745913Y-35083031D01*
X109750345Y-35079345D01*
X109880147Y-34923276D01*
X109979334Y-34746165D01*
X109981190Y-34740698D01*
X109981192Y-34740693D01*
X110042728Y-34559414D01*
X110042729Y-34559409D01*
X110044584Y-34553945D01*
X110045412Y-34548236D01*
X110045413Y-34548231D01*
X110073179Y-34356727D01*
X110073712Y-34353053D01*
X110075232Y-34295000D01*
X110056658Y-34092859D01*
X110055090Y-34087299D01*
X110003125Y-33903046D01*
X110003124Y-33903044D01*
X110001557Y-33897487D01*
X109990978Y-33876033D01*
X109914331Y-33720609D01*
X109911776Y-33715428D01*
X109901385Y-33701512D01*
X109842275Y-33622355D01*
X109790320Y-33552779D01*
X109641258Y-33414987D01*
X109636375Y-33411906D01*
X109636371Y-33411903D01*
X109474464Y-33309748D01*
X109469581Y-33306667D01*
X109310450Y-33243180D01*
X126771329Y-33243180D01*
X126773750Y-33255352D01*
X126773750Y-33257134D01*
X126774972Y-33265972D01*
X126778417Y-33309748D01*
X126785730Y-33402688D01*
X126788670Y-33414933D01*
X126815126Y-33525138D01*
X126823079Y-33558269D01*
X126824971Y-33562837D01*
X126824972Y-33562840D01*
X126876123Y-33686332D01*
X126884307Y-33706091D01*
X126967907Y-33842515D01*
X126971116Y-33846273D01*
X126971118Y-33846275D01*
X127057008Y-33946840D01*
X127062348Y-33953894D01*
X127063624Y-33955170D01*
X127070516Y-33965484D01*
X127080830Y-33972376D01*
X127084385Y-33975931D01*
X127098795Y-33988053D01*
X128286272Y-35234587D01*
X128299806Y-35251492D01*
X128302804Y-35255979D01*
X128302808Y-35255983D01*
X128309701Y-35266299D01*
X128320020Y-35273194D01*
X128321299Y-35274473D01*
X128328344Y-35279806D01*
X128428910Y-35365699D01*
X128428914Y-35365702D01*
X128432669Y-35368909D01*
X128569092Y-35452509D01*
X128573662Y-35454402D01*
X128573666Y-35454404D01*
X128712344Y-35511846D01*
X128712350Y-35511848D01*
X128716913Y-35513738D01*
X128721713Y-35514890D01*
X128721718Y-35514892D01*
X128867685Y-35549936D01*
X128867689Y-35549937D01*
X128872493Y-35551090D01*
X128877423Y-35551478D01*
X129009265Y-35561854D01*
X129018022Y-35563065D01*
X129019828Y-35563065D01*
X129032000Y-35565486D01*
X129041899Y-35563517D01*
X129047065Y-35563065D01*
X129047718Y-35563065D01*
X129048747Y-35562918D01*
X129083331Y-35559892D01*
X129209188Y-35548881D01*
X129214501Y-35547457D01*
X129214503Y-35547457D01*
X129336036Y-35514892D01*
X129380992Y-35502846D01*
X129385977Y-35500521D01*
X129385981Y-35500520D01*
X129537208Y-35430002D01*
X129542192Y-35427678D01*
X129630707Y-35365699D01*
X129683379Y-35328818D01*
X129683382Y-35328816D01*
X129687890Y-35325659D01*
X129813659Y-35199890D01*
X129833794Y-35171135D01*
X129895485Y-35083031D01*
X129915678Y-35054192D01*
X129974653Y-34927718D01*
X129988520Y-34897981D01*
X129988521Y-34897977D01*
X129990846Y-34892992D01*
X130028837Y-34751208D01*
X130035457Y-34726503D01*
X130035457Y-34726501D01*
X130036881Y-34721188D01*
X130050918Y-34560747D01*
X130051065Y-34559718D01*
X130051065Y-34559065D01*
X130051517Y-34553899D01*
X130053486Y-34544000D01*
X130050921Y-34531103D01*
X130048500Y-34506524D01*
X130048500Y-33414933D01*
X143929500Y-33414933D01*
X143929501Y-35165066D01*
X143935530Y-35195379D01*
X143938269Y-35209147D01*
X143944266Y-35239301D01*
X143951161Y-35249620D01*
X143951162Y-35249622D01*
X143971331Y-35279806D01*
X144000516Y-35323484D01*
X144084699Y-35379734D01*
X144158933Y-35394500D01*
X145033858Y-35394500D01*
X145909066Y-35394499D01*
X145944818Y-35387388D01*
X145971126Y-35382156D01*
X145971128Y-35382155D01*
X145983301Y-35379734D01*
X145993621Y-35372839D01*
X145993622Y-35372838D01*
X146057168Y-35330377D01*
X146067484Y-35323484D01*
X146123734Y-35239301D01*
X146138500Y-35165067D01*
X146138499Y-33414934D01*
X146123734Y-33340699D01*
X146099565Y-33304527D01*
X146074377Y-33266832D01*
X146067484Y-33256516D01*
X145983301Y-33200266D01*
X145909067Y-33185500D01*
X145034142Y-33185500D01*
X144158934Y-33185501D01*
X144127425Y-33191768D01*
X144096874Y-33197844D01*
X144096872Y-33197845D01*
X144084699Y-33200266D01*
X144074379Y-33207161D01*
X144074378Y-33207162D01*
X144013985Y-33247516D01*
X144000516Y-33256516D01*
X143944266Y-33340699D01*
X143929500Y-33414933D01*
X130048500Y-33414933D01*
X130048500Y-31533476D01*
X130050921Y-31508894D01*
X130051065Y-31508170D01*
X130053486Y-31496000D01*
X130051517Y-31486101D01*
X130051065Y-31480935D01*
X130051065Y-31480282D01*
X130050918Y-31479253D01*
X130037360Y-31324292D01*
X130036881Y-31318812D01*
X130006832Y-31206667D01*
X129992269Y-31152318D01*
X129992268Y-31152316D01*
X129990846Y-31147008D01*
X129942536Y-31043406D01*
X129918001Y-30990790D01*
X129917999Y-30990787D01*
X129915678Y-30985809D01*
X129813659Y-30840110D01*
X129687890Y-30714341D01*
X129683382Y-30711184D01*
X129683379Y-30711182D01*
X129546696Y-30615476D01*
X129542192Y-30612322D01*
X129494489Y-30590078D01*
X129385981Y-30539480D01*
X129385977Y-30539479D01*
X129380992Y-30537154D01*
X129226684Y-30495807D01*
X129214503Y-30492543D01*
X129214501Y-30492543D01*
X129209188Y-30491119D01*
X129083331Y-30480108D01*
X129048747Y-30477082D01*
X129047718Y-30476935D01*
X129047065Y-30476935D01*
X129041899Y-30476483D01*
X129032000Y-30474514D01*
X129019828Y-30476935D01*
X129018022Y-30476935D01*
X129009261Y-30478147D01*
X128902556Y-30486545D01*
X128872493Y-30488911D01*
X128808569Y-30504258D01*
X128721718Y-30525109D01*
X128721713Y-30525111D01*
X128716913Y-30526263D01*
X128712350Y-30528153D01*
X128712344Y-30528155D01*
X128573666Y-30585597D01*
X128573662Y-30585599D01*
X128569092Y-30587492D01*
X128432669Y-30671092D01*
X128328341Y-30760197D01*
X128321291Y-30765533D01*
X128320015Y-30766809D01*
X128309701Y-30773701D01*
X128302810Y-30784014D01*
X128302807Y-30784017D01*
X128299806Y-30788508D01*
X128286272Y-30805413D01*
X127098795Y-32051947D01*
X127084385Y-32064069D01*
X127080830Y-32067624D01*
X127070516Y-32074516D01*
X127063623Y-32084831D01*
X127062327Y-32086127D01*
X127057044Y-32093106D01*
X126971118Y-32193713D01*
X126971112Y-32193722D01*
X126967901Y-32197481D01*
X126884301Y-32333906D01*
X126882406Y-32338481D01*
X126882404Y-32338485D01*
X126835803Y-32450993D01*
X126823072Y-32481729D01*
X126785723Y-32637311D01*
X126774961Y-32774085D01*
X126773749Y-32782847D01*
X126773749Y-32784651D01*
X126771329Y-32796820D01*
X126773750Y-32808990D01*
X126773894Y-32809715D01*
X126776315Y-32834298D01*
X126776315Y-33205702D01*
X126773894Y-33230285D01*
X126771329Y-33243180D01*
X109310450Y-33243180D01*
X109281039Y-33231446D01*
X109275379Y-33230320D01*
X109275375Y-33230319D01*
X109087613Y-33192971D01*
X109087610Y-33192971D01*
X109081946Y-33191844D01*
X109076171Y-33191768D01*
X109076167Y-33191768D01*
X108974793Y-33190441D01*
X108878971Y-33189187D01*
X108873274Y-33190166D01*
X108873273Y-33190166D01*
X108814495Y-33200266D01*
X108678910Y-33223564D01*
X108488463Y-33293824D01*
X108314010Y-33397612D01*
X108309670Y-33401418D01*
X108309666Y-33401421D01*
X108168595Y-33525138D01*
X108161392Y-33531455D01*
X108157817Y-33535990D01*
X108157816Y-33535991D01*
X108136650Y-33562840D01*
X108035720Y-33690869D01*
X108033031Y-33695980D01*
X108033029Y-33695983D01*
X108020073Y-33720609D01*
X107941203Y-33870515D01*
X107881007Y-34064378D01*
X107857148Y-34265964D01*
X107188500Y-34265964D01*
X107188500Y-31279476D01*
X107190921Y-31254894D01*
X107193486Y-31242000D01*
X107191066Y-31229831D01*
X107191066Y-31217419D01*
X107191916Y-31217419D01*
X107191281Y-31206667D01*
X107195559Y-31152318D01*
X107203352Y-31053290D01*
X107206445Y-31033763D01*
X107214257Y-31001224D01*
X107248321Y-30859339D01*
X107254429Y-30840540D01*
X107323074Y-30674816D01*
X107332048Y-30657205D01*
X107425775Y-30504258D01*
X107437390Y-30488270D01*
X107553890Y-30351866D01*
X107567868Y-30337888D01*
X107704270Y-30221390D01*
X107720258Y-30209775D01*
X107873205Y-30116048D01*
X107890816Y-30107074D01*
X108056545Y-30038427D01*
X108075339Y-30032321D01*
X108249764Y-29990445D01*
X108269290Y-29987352D01*
X108422669Y-29975281D01*
X108433419Y-29975916D01*
X108433419Y-29975066D01*
X108445831Y-29975066D01*
X108458000Y-29977486D01*
X108470897Y-29974921D01*
X108495476Y-29972500D01*
X145504524Y-29972500D01*
X145529103Y-29974921D01*
G37*
G04 #@! TD.AperFunction*
M02*
