M48
; DRILL file {KiCad 6.0.9-8da3e8f707~116~ubuntu22.04.1} date Sun 27 Nov 2022 05:06:45 AM +0530
; FORMAT={-:-/ absolute / metric / decimal}
; #@! TF.CreationDate,2022-11-27T05:06:45+05:30
; #@! TF.GenerationSoftware,Kicad,Pcbnew,6.0.9-8da3e8f707~116~ubuntu22.04.1
; #@! TF.FileFunction,Plated,1,2,PTH
FMAT,2
METRIC
; #@! TA.AperFunction,Plated,PTH,ViaDrill
T1C0.200
; #@! TA.AperFunction,Plated,PTH,ComponentDrill
T2C1.000
%
G90
G05
T1
X110.617Y-39.624
X112.014Y-32.512
X112.014Y-34.544
X112.014Y-37.084
X113.919Y-41.021
X113.919Y-42.926
X115.721Y-46.355
X116.076Y-42.799
X116.775Y-42.799
X117.348Y-33.02
X117.602Y-41.021
X117.602Y-46.355
X117.688Y-42.799
X118.872Y-34.29
X118.999Y-37.846
X119.38Y-46.355
X119.507Y-43.434
X119.761Y-37.846
X119.888Y-34.29
X120.523Y-44.916
X120.523Y-46.015
X122.428Y-36.068
X124.206Y-42.418
X124.587Y-45.466
X125.095Y-44.958
X125.095Y-45.974
X128.143Y-46.101
X129.794Y-41.148
X131.064Y-34.671
X132.207Y-34.671
X134.874Y-35.052
X134.874Y-36.576
X135.128Y-46.609
X137.287Y-34.544
X137.287Y-35.306
X137.287Y-36.322
X137.287Y-37.084
X138.43Y-38.608
X138.43Y-39.624
X138.684Y-44.831
X138.684Y-46.633
X138.938Y-39.116
T2
X108.966Y-34.295
X108.966Y-36.835
X108.966Y-40.64
X108.966Y-43.18
X108.966Y-45.72
X145.034Y-34.29
X145.034Y-43.18
T0
M30
