%TF.GenerationSoftware,KiCad,Pcbnew,6.0.9-8da3e8f707~116~ubuntu22.04.1*%
%TF.CreationDate,2022-11-27T05:06:45+05:30*%
%TF.ProjectId,meshy-tron,6d657368-792d-4747-926f-6e2e6b696361,rev?*%
%TF.SameCoordinates,Original*%
%TF.FileFunction,Drillmap*%
%TF.FilePolarity,Positive*%
%FSLAX45Y45*%
G04 Gerber Fmt 4.5, Leading zero omitted, Abs format (unit mm)*
G04 Created by KiCad (PCBNEW 6.0.9-8da3e8f707~116~ubuntu22.04.1) date 2022-11-27 05:06:45*
%MOMM*%
%LPD*%
G01*
G04 APERTURE LIST*
%ADD10C,0.200000*%
%ADD11C,0.020000*%
%ADD12C,0.100000*%
G04 APERTURE END LIST*
D10*
X12703081Y-3279681D02*
X12703081Y-3324318D01*
X12903200Y-3073400D02*
G75*
G03*
X12849318Y-3095718I0J-76200D01*
G01*
X12725400Y-3225800D02*
X12849318Y-3095718D01*
X12979400Y-3149600D02*
G75*
G03*
X12903200Y-3073400I-76200J0D01*
G01*
X12725400Y-3225800D02*
G75*
G03*
X12703081Y-3279681I53882J-53882D01*
G01*
X12703082Y-3324318D02*
G75*
G03*
X12725400Y-3378200I76200J0D01*
G01*
X12849318Y-3508281D02*
X12725400Y-3378200D01*
X12849318Y-3508281D02*
G75*
G03*
X12903200Y-3530600I53882J53882D01*
G01*
X12903200Y-3530600D02*
G75*
G03*
X12979400Y-3454400I0J76200D01*
G01*
X12700000Y-4775200D02*
X10845800Y-4775200D01*
X14554200Y-4775200D02*
G75*
G03*
X14706600Y-4622800I0J152400D01*
G01*
X10693400Y-4622800D02*
X10693400Y-3873500D01*
X14554200Y-4775200D02*
X12700000Y-4775200D01*
X10693400Y-4622800D02*
G75*
G03*
X10845800Y-4775200I152400J0D01*
G01*
X14706600Y-4622800D02*
X14706600Y-3873500D01*
X14706600Y-3124200D02*
X14706600Y-3873500D01*
X12979400Y-3454400D02*
X12979400Y-3149600D01*
X14706600Y-3124200D02*
G75*
G03*
X14554200Y-2971800I-152400J0D01*
G01*
X12700000Y-2971800D02*
X14554200Y-2971800D01*
X10845800Y-2971800D02*
X12700000Y-2971800D01*
X10693400Y-3124200D02*
X10693400Y-3873500D01*
X10845800Y-2971800D02*
G75*
G03*
X10693400Y-3124200I0J-152400D01*
G01*
D11*
X11051700Y-3952400D02*
X11071700Y-3972400D01*
X11071700Y-3952400D02*
X11051700Y-3972400D01*
X11191400Y-3241200D02*
X11211400Y-3261200D01*
X11211400Y-3241200D02*
X11191400Y-3261200D01*
X11191400Y-3444400D02*
X11211400Y-3464400D01*
X11211400Y-3444400D02*
X11191400Y-3464400D01*
X11191400Y-3698400D02*
X11211400Y-3718400D01*
X11211400Y-3698400D02*
X11191400Y-3718400D01*
X11381900Y-4092100D02*
X11401900Y-4112100D01*
X11401900Y-4092100D02*
X11381900Y-4112100D01*
X11381900Y-4282600D02*
X11401900Y-4302600D01*
X11401900Y-4282600D02*
X11381900Y-4302600D01*
X11562050Y-4625500D02*
X11582050Y-4645500D01*
X11582050Y-4625500D02*
X11562050Y-4645500D01*
X11597599Y-4269900D02*
X11617599Y-4289900D01*
X11617599Y-4269900D02*
X11597599Y-4289900D01*
X11667550Y-4269900D02*
X11687550Y-4289900D01*
X11687550Y-4269900D02*
X11667550Y-4289900D01*
X11724800Y-3292000D02*
X11744800Y-3312000D01*
X11744800Y-3292000D02*
X11724800Y-3312000D01*
X11750200Y-4092100D02*
X11770200Y-4112100D01*
X11770200Y-4092100D02*
X11750200Y-4112100D01*
X11750200Y-4625500D02*
X11770200Y-4645500D01*
X11770200Y-4625500D02*
X11750200Y-4645500D01*
X11758750Y-4269900D02*
X11778750Y-4289900D01*
X11778750Y-4269900D02*
X11758750Y-4289900D01*
X11877200Y-3419000D02*
X11897200Y-3439000D01*
X11897200Y-3419000D02*
X11877200Y-3439000D01*
X11889900Y-3774600D02*
X11909900Y-3794600D01*
X11909900Y-3774600D02*
X11889900Y-3794600D01*
X11928000Y-4625500D02*
X11948000Y-4645500D01*
X11948000Y-4625500D02*
X11928000Y-4645500D01*
X11940700Y-4333400D02*
X11960700Y-4353400D01*
X11960700Y-4333400D02*
X11940700Y-4353400D01*
X11966100Y-3774600D02*
X11986100Y-3794600D01*
X11986100Y-3774600D02*
X11966100Y-3794600D01*
X11978800Y-3419000D02*
X11998800Y-3439000D01*
X11998800Y-3419000D02*
X11978800Y-3439000D01*
X12042300Y-4481650D02*
X12062300Y-4501650D01*
X12062300Y-4481650D02*
X12042300Y-4501650D01*
X12042300Y-4591550D02*
X12062300Y-4611550D01*
X12062300Y-4591550D02*
X12042300Y-4611550D01*
X12232800Y-3596800D02*
X12252800Y-3616800D01*
X12252800Y-3596800D02*
X12232800Y-3616800D01*
X12410600Y-4231800D02*
X12430600Y-4251800D01*
X12430600Y-4231800D02*
X12410600Y-4251800D01*
X12448700Y-4536600D02*
X12468700Y-4556600D01*
X12468700Y-4536600D02*
X12448700Y-4556600D01*
X12499500Y-4485800D02*
X12519500Y-4505800D01*
X12519500Y-4485800D02*
X12499500Y-4505800D01*
X12499500Y-4587400D02*
X12519500Y-4607400D01*
X12519500Y-4587400D02*
X12499500Y-4607400D01*
X12804300Y-4600100D02*
X12824300Y-4620100D01*
X12824300Y-4600100D02*
X12804300Y-4620100D01*
X12969400Y-4104800D02*
X12989400Y-4124800D01*
X12989400Y-4104800D02*
X12969400Y-4124800D01*
X13096400Y-3457100D02*
X13116400Y-3477100D01*
X13116400Y-3457100D02*
X13096400Y-3477100D01*
X13210700Y-3457100D02*
X13230700Y-3477100D01*
X13230700Y-3457100D02*
X13210700Y-3477100D01*
X13477400Y-3495200D02*
X13497400Y-3515200D01*
X13497400Y-3495200D02*
X13477400Y-3515200D01*
X13477400Y-3647600D02*
X13497400Y-3667600D01*
X13497400Y-3647600D02*
X13477400Y-3667600D01*
X13502800Y-4650900D02*
X13522800Y-4670900D01*
X13522800Y-4650900D02*
X13502800Y-4670900D01*
X13718700Y-3444400D02*
X13738700Y-3464400D01*
X13738700Y-3444400D02*
X13718700Y-3464400D01*
X13718700Y-3520600D02*
X13738700Y-3540600D01*
X13738700Y-3520600D02*
X13718700Y-3540600D01*
X13718700Y-3622200D02*
X13738700Y-3642200D01*
X13738700Y-3622200D02*
X13718700Y-3642200D01*
X13718700Y-3698400D02*
X13738700Y-3718400D01*
X13738700Y-3698400D02*
X13718700Y-3718400D01*
X13833000Y-3850800D02*
X13853000Y-3870800D01*
X13853000Y-3850800D02*
X13833000Y-3870800D01*
X13833000Y-3952400D02*
X13853000Y-3972400D01*
X13853000Y-3952400D02*
X13833000Y-3972400D01*
X13858400Y-4473100D02*
X13878400Y-4493100D01*
X13878400Y-4473100D02*
X13858400Y-4493100D01*
X13858400Y-4653250D02*
X13878400Y-4673250D01*
X13878400Y-4653250D02*
X13858400Y-4673250D01*
X13883800Y-3901600D02*
X13903800Y-3921600D01*
X13903800Y-3901600D02*
X13883800Y-3921600D01*
D12*
X10946600Y-3429500D02*
G75*
G03*
X10946600Y-3429500I-50000J0D01*
G01*
X10946600Y-3683500D02*
G75*
G03*
X10946600Y-3683500I-50000J0D01*
G01*
X10946600Y-4064000D02*
G75*
G03*
X10946600Y-4064000I-50000J0D01*
G01*
X10946600Y-4318000D02*
G75*
G03*
X10946600Y-4318000I-50000J0D01*
G01*
X10946600Y-4572000D02*
G75*
G03*
X10946600Y-4572000I-50000J0D01*
G01*
X14553400Y-3429000D02*
G75*
G03*
X14553400Y-3429000I-50000J0D01*
G01*
X14553400Y-4318000D02*
G75*
G03*
X14553400Y-4318000I-50000J0D01*
G01*
D10*
X10941019Y-5095676D02*
X10941019Y-4895676D01*
X10988638Y-4895676D01*
X11017210Y-4905200D01*
X11036257Y-4924248D01*
X11045781Y-4943295D01*
X11055305Y-4981390D01*
X11055305Y-5009962D01*
X11045781Y-5048057D01*
X11036257Y-5067105D01*
X11017210Y-5086152D01*
X10988638Y-5095676D01*
X10941019Y-5095676D01*
X11141019Y-5095676D02*
X11141019Y-4962343D01*
X11141019Y-5000438D02*
X11150543Y-4981390D01*
X11160067Y-4971867D01*
X11179114Y-4962343D01*
X11198162Y-4962343D01*
X11264828Y-5095676D02*
X11264828Y-4962343D01*
X11264828Y-4895676D02*
X11255305Y-4905200D01*
X11264828Y-4914724D01*
X11274352Y-4905200D01*
X11264828Y-4895676D01*
X11264828Y-4914724D01*
X11388638Y-5095676D02*
X11369590Y-5086152D01*
X11360067Y-5067105D01*
X11360067Y-4895676D01*
X11493400Y-5095676D02*
X11474352Y-5086152D01*
X11464828Y-5067105D01*
X11464828Y-4895676D01*
X11721971Y-5095676D02*
X11721971Y-4895676D01*
X11788638Y-5038533D01*
X11855305Y-4895676D01*
X11855305Y-5095676D01*
X12036257Y-5095676D02*
X12036257Y-4990914D01*
X12026733Y-4971867D01*
X12007686Y-4962343D01*
X11969590Y-4962343D01*
X11950543Y-4971867D01*
X12036257Y-5086152D02*
X12017209Y-5095676D01*
X11969590Y-5095676D01*
X11950543Y-5086152D01*
X11941019Y-5067105D01*
X11941019Y-5048057D01*
X11950543Y-5029010D01*
X11969590Y-5019486D01*
X12017209Y-5019486D01*
X12036257Y-5009962D01*
X12131495Y-4962343D02*
X12131495Y-5162343D01*
X12131495Y-4971867D02*
X12150543Y-4962343D01*
X12188638Y-4962343D01*
X12207686Y-4971867D01*
X12217209Y-4981390D01*
X12226733Y-5000438D01*
X12226733Y-5057581D01*
X12217209Y-5076629D01*
X12207686Y-5086152D01*
X12188638Y-5095676D01*
X12150543Y-5095676D01*
X12131495Y-5086152D01*
X12312448Y-5076629D02*
X12321971Y-5086152D01*
X12312448Y-5095676D01*
X12302924Y-5086152D01*
X12312448Y-5076629D01*
X12312448Y-5095676D01*
X12312448Y-4971867D02*
X12321971Y-4981390D01*
X12312448Y-4990914D01*
X12302924Y-4981390D01*
X12312448Y-4971867D01*
X12312448Y-4990914D01*
D11*
X10663400Y-5415200D02*
X10683400Y-5435200D01*
X10683400Y-5415200D02*
X10663400Y-5435200D01*
D10*
X10979114Y-5315676D02*
X10998162Y-5315676D01*
X11017210Y-5325200D01*
X11026733Y-5334724D01*
X11036257Y-5353771D01*
X11045781Y-5391867D01*
X11045781Y-5439486D01*
X11036257Y-5477581D01*
X11026733Y-5496629D01*
X11017210Y-5506152D01*
X10998162Y-5515676D01*
X10979114Y-5515676D01*
X10960067Y-5506152D01*
X10950543Y-5496629D01*
X10941019Y-5477581D01*
X10931495Y-5439486D01*
X10931495Y-5391867D01*
X10941019Y-5353771D01*
X10950543Y-5334724D01*
X10960067Y-5325200D01*
X10979114Y-5315676D01*
X11131495Y-5496629D02*
X11141019Y-5506152D01*
X11131495Y-5515676D01*
X11121971Y-5506152D01*
X11131495Y-5496629D01*
X11131495Y-5515676D01*
X11217209Y-5334724D02*
X11226733Y-5325200D01*
X11245781Y-5315676D01*
X11293400Y-5315676D01*
X11312448Y-5325200D01*
X11321971Y-5334724D01*
X11331495Y-5353771D01*
X11331495Y-5372819D01*
X11321971Y-5401390D01*
X11207686Y-5515676D01*
X11331495Y-5515676D01*
X11455305Y-5315676D02*
X11474352Y-5315676D01*
X11493400Y-5325200D01*
X11502924Y-5334724D01*
X11512448Y-5353771D01*
X11521971Y-5391867D01*
X11521971Y-5439486D01*
X11512448Y-5477581D01*
X11502924Y-5496629D01*
X11493400Y-5506152D01*
X11474352Y-5515676D01*
X11455305Y-5515676D01*
X11436257Y-5506152D01*
X11426733Y-5496629D01*
X11417209Y-5477581D01*
X11407686Y-5439486D01*
X11407686Y-5391867D01*
X11417209Y-5353771D01*
X11426733Y-5334724D01*
X11436257Y-5325200D01*
X11455305Y-5315676D01*
X11645781Y-5315676D02*
X11664828Y-5315676D01*
X11683876Y-5325200D01*
X11693400Y-5334724D01*
X11702924Y-5353771D01*
X11712448Y-5391867D01*
X11712448Y-5439486D01*
X11702924Y-5477581D01*
X11693400Y-5496629D01*
X11683876Y-5506152D01*
X11664828Y-5515676D01*
X11645781Y-5515676D01*
X11626733Y-5506152D01*
X11617209Y-5496629D01*
X11607686Y-5477581D01*
X11598162Y-5439486D01*
X11598162Y-5391867D01*
X11607686Y-5353771D01*
X11617209Y-5334724D01*
X11626733Y-5325200D01*
X11645781Y-5315676D01*
X11798162Y-5515676D02*
X11798162Y-5382343D01*
X11798162Y-5401390D02*
X11807686Y-5391867D01*
X11826733Y-5382343D01*
X11855305Y-5382343D01*
X11874352Y-5391867D01*
X11883876Y-5410914D01*
X11883876Y-5515676D01*
X11883876Y-5410914D02*
X11893400Y-5391867D01*
X11912448Y-5382343D01*
X11941019Y-5382343D01*
X11960067Y-5391867D01*
X11969590Y-5410914D01*
X11969590Y-5515676D01*
X12064828Y-5515676D02*
X12064828Y-5382343D01*
X12064828Y-5401390D02*
X12074352Y-5391867D01*
X12093400Y-5382343D01*
X12121971Y-5382343D01*
X12141019Y-5391867D01*
X12150543Y-5410914D01*
X12150543Y-5515676D01*
X12150543Y-5410914D02*
X12160067Y-5391867D01*
X12179114Y-5382343D01*
X12207686Y-5382343D01*
X12226733Y-5391867D01*
X12236257Y-5410914D01*
X12236257Y-5515676D01*
X12626733Y-5306152D02*
X12455305Y-5563295D01*
X12883876Y-5315676D02*
X12902924Y-5315676D01*
X12921971Y-5325200D01*
X12931495Y-5334724D01*
X12941019Y-5353771D01*
X12950543Y-5391867D01*
X12950543Y-5439486D01*
X12941019Y-5477581D01*
X12931495Y-5496629D01*
X12921971Y-5506152D01*
X12902924Y-5515676D01*
X12883876Y-5515676D01*
X12864828Y-5506152D01*
X12855305Y-5496629D01*
X12845781Y-5477581D01*
X12836257Y-5439486D01*
X12836257Y-5391867D01*
X12845781Y-5353771D01*
X12855305Y-5334724D01*
X12864828Y-5325200D01*
X12883876Y-5315676D01*
X13036257Y-5496629D02*
X13045781Y-5506152D01*
X13036257Y-5515676D01*
X13026733Y-5506152D01*
X13036257Y-5496629D01*
X13036257Y-5515676D01*
X13169590Y-5315676D02*
X13188638Y-5315676D01*
X13207686Y-5325200D01*
X13217209Y-5334724D01*
X13226733Y-5353771D01*
X13236257Y-5391867D01*
X13236257Y-5439486D01*
X13226733Y-5477581D01*
X13217209Y-5496629D01*
X13207686Y-5506152D01*
X13188638Y-5515676D01*
X13169590Y-5515676D01*
X13150543Y-5506152D01*
X13141019Y-5496629D01*
X13131495Y-5477581D01*
X13121971Y-5439486D01*
X13121971Y-5391867D01*
X13131495Y-5353771D01*
X13141019Y-5334724D01*
X13150543Y-5325200D01*
X13169590Y-5315676D01*
X13360067Y-5315676D02*
X13379114Y-5315676D01*
X13398162Y-5325200D01*
X13407686Y-5334724D01*
X13417209Y-5353771D01*
X13426733Y-5391867D01*
X13426733Y-5439486D01*
X13417209Y-5477581D01*
X13407686Y-5496629D01*
X13398162Y-5506152D01*
X13379114Y-5515676D01*
X13360067Y-5515676D01*
X13341019Y-5506152D01*
X13331495Y-5496629D01*
X13321971Y-5477581D01*
X13312448Y-5439486D01*
X13312448Y-5391867D01*
X13321971Y-5353771D01*
X13331495Y-5334724D01*
X13341019Y-5325200D01*
X13360067Y-5315676D01*
X13493400Y-5315676D02*
X13626733Y-5315676D01*
X13541019Y-5515676D01*
X13712448Y-5515676D02*
X13750543Y-5515676D01*
X13769590Y-5506152D01*
X13779114Y-5496629D01*
X13798162Y-5468057D01*
X13807686Y-5429962D01*
X13807686Y-5353771D01*
X13798162Y-5334724D01*
X13788638Y-5325200D01*
X13769590Y-5315676D01*
X13731495Y-5315676D01*
X13712448Y-5325200D01*
X13702924Y-5334724D01*
X13693400Y-5353771D01*
X13693400Y-5401390D01*
X13702924Y-5420438D01*
X13712448Y-5429962D01*
X13731495Y-5439486D01*
X13769590Y-5439486D01*
X13788638Y-5429962D01*
X13798162Y-5420438D01*
X13807686Y-5401390D01*
X13883876Y-5315676D02*
X13883876Y-5353771D01*
X13960067Y-5315676D02*
X13960067Y-5353771D01*
X14255305Y-5591867D02*
X14245781Y-5582343D01*
X14226733Y-5553771D01*
X14217209Y-5534724D01*
X14207686Y-5506152D01*
X14198162Y-5458533D01*
X14198162Y-5420438D01*
X14207686Y-5372819D01*
X14217209Y-5344248D01*
X14226733Y-5325200D01*
X14245781Y-5296629D01*
X14255305Y-5287105D01*
X14417209Y-5382343D02*
X14417209Y-5515676D01*
X14369590Y-5306152D02*
X14321971Y-5449010D01*
X14445781Y-5449010D01*
X14512448Y-5334724D02*
X14521971Y-5325200D01*
X14541019Y-5315676D01*
X14588638Y-5315676D01*
X14607686Y-5325200D01*
X14617209Y-5334724D01*
X14626733Y-5353771D01*
X14626733Y-5372819D01*
X14617209Y-5401390D01*
X14502924Y-5515676D01*
X14626733Y-5515676D01*
X14864828Y-5515676D02*
X14864828Y-5315676D01*
X14950543Y-5515676D02*
X14950543Y-5410914D01*
X14941019Y-5391867D01*
X14921971Y-5382343D01*
X14893400Y-5382343D01*
X14874352Y-5391867D01*
X14864828Y-5401390D01*
X15074352Y-5515676D02*
X15055305Y-5506152D01*
X15045781Y-5496629D01*
X15036257Y-5477581D01*
X15036257Y-5420438D01*
X15045781Y-5401390D01*
X15055305Y-5391867D01*
X15074352Y-5382343D01*
X15102924Y-5382343D01*
X15121971Y-5391867D01*
X15131495Y-5401390D01*
X15141019Y-5420438D01*
X15141019Y-5477581D01*
X15131495Y-5496629D01*
X15121971Y-5506152D01*
X15102924Y-5515676D01*
X15074352Y-5515676D01*
X15255305Y-5515676D02*
X15236257Y-5506152D01*
X15226733Y-5487105D01*
X15226733Y-5315676D01*
X15407686Y-5506152D02*
X15388638Y-5515676D01*
X15350543Y-5515676D01*
X15331495Y-5506152D01*
X15321971Y-5487105D01*
X15321971Y-5410914D01*
X15331495Y-5391867D01*
X15350543Y-5382343D01*
X15388638Y-5382343D01*
X15407686Y-5391867D01*
X15417209Y-5410914D01*
X15417209Y-5429962D01*
X15321971Y-5449010D01*
X15493400Y-5506152D02*
X15512448Y-5515676D01*
X15550543Y-5515676D01*
X15569590Y-5506152D01*
X15579114Y-5487105D01*
X15579114Y-5477581D01*
X15569590Y-5458533D01*
X15550543Y-5449010D01*
X15521971Y-5449010D01*
X15502924Y-5439486D01*
X15493400Y-5420438D01*
X15493400Y-5410914D01*
X15502924Y-5391867D01*
X15521971Y-5382343D01*
X15550543Y-5382343D01*
X15569590Y-5391867D01*
X15645781Y-5591867D02*
X15655305Y-5582343D01*
X15674352Y-5553771D01*
X15683876Y-5534724D01*
X15693400Y-5506152D01*
X15702924Y-5458533D01*
X15702924Y-5420438D01*
X15693400Y-5372819D01*
X15683876Y-5344248D01*
X15674352Y-5325200D01*
X15655305Y-5296629D01*
X15645781Y-5287105D01*
D12*
X10683400Y-5689200D02*
G75*
G03*
X10683400Y-5689200I-50000J0D01*
G01*
D10*
X11045781Y-5779676D02*
X10931495Y-5779676D01*
X10988638Y-5779676D02*
X10988638Y-5579676D01*
X10969590Y-5608248D01*
X10950543Y-5627295D01*
X10931495Y-5636819D01*
X11131495Y-5760628D02*
X11141019Y-5770152D01*
X11131495Y-5779676D01*
X11121971Y-5770152D01*
X11131495Y-5760628D01*
X11131495Y-5779676D01*
X11264828Y-5579676D02*
X11283876Y-5579676D01*
X11302924Y-5589200D01*
X11312448Y-5598724D01*
X11321971Y-5617771D01*
X11331495Y-5655867D01*
X11331495Y-5703486D01*
X11321971Y-5741581D01*
X11312448Y-5760628D01*
X11302924Y-5770152D01*
X11283876Y-5779676D01*
X11264828Y-5779676D01*
X11245781Y-5770152D01*
X11236257Y-5760628D01*
X11226733Y-5741581D01*
X11217209Y-5703486D01*
X11217209Y-5655867D01*
X11226733Y-5617771D01*
X11236257Y-5598724D01*
X11245781Y-5589200D01*
X11264828Y-5579676D01*
X11455305Y-5579676D02*
X11474352Y-5579676D01*
X11493400Y-5589200D01*
X11502924Y-5598724D01*
X11512448Y-5617771D01*
X11521971Y-5655867D01*
X11521971Y-5703486D01*
X11512448Y-5741581D01*
X11502924Y-5760628D01*
X11493400Y-5770152D01*
X11474352Y-5779676D01*
X11455305Y-5779676D01*
X11436257Y-5770152D01*
X11426733Y-5760628D01*
X11417209Y-5741581D01*
X11407686Y-5703486D01*
X11407686Y-5655867D01*
X11417209Y-5617771D01*
X11426733Y-5598724D01*
X11436257Y-5589200D01*
X11455305Y-5579676D01*
X11645781Y-5579676D02*
X11664828Y-5579676D01*
X11683876Y-5589200D01*
X11693400Y-5598724D01*
X11702924Y-5617771D01*
X11712448Y-5655867D01*
X11712448Y-5703486D01*
X11702924Y-5741581D01*
X11693400Y-5760628D01*
X11683876Y-5770152D01*
X11664828Y-5779676D01*
X11645781Y-5779676D01*
X11626733Y-5770152D01*
X11617209Y-5760628D01*
X11607686Y-5741581D01*
X11598162Y-5703486D01*
X11598162Y-5655867D01*
X11607686Y-5617771D01*
X11617209Y-5598724D01*
X11626733Y-5589200D01*
X11645781Y-5579676D01*
X11798162Y-5779676D02*
X11798162Y-5646343D01*
X11798162Y-5665390D02*
X11807686Y-5655867D01*
X11826733Y-5646343D01*
X11855305Y-5646343D01*
X11874352Y-5655867D01*
X11883876Y-5674914D01*
X11883876Y-5779676D01*
X11883876Y-5674914D02*
X11893400Y-5655867D01*
X11912448Y-5646343D01*
X11941019Y-5646343D01*
X11960067Y-5655867D01*
X11969590Y-5674914D01*
X11969590Y-5779676D01*
X12064828Y-5779676D02*
X12064828Y-5646343D01*
X12064828Y-5665390D02*
X12074352Y-5655867D01*
X12093400Y-5646343D01*
X12121971Y-5646343D01*
X12141019Y-5655867D01*
X12150543Y-5674914D01*
X12150543Y-5779676D01*
X12150543Y-5674914D02*
X12160067Y-5655867D01*
X12179114Y-5646343D01*
X12207686Y-5646343D01*
X12226733Y-5655867D01*
X12236257Y-5674914D01*
X12236257Y-5779676D01*
X12626733Y-5570152D02*
X12455305Y-5827295D01*
X12883876Y-5579676D02*
X12902924Y-5579676D01*
X12921971Y-5589200D01*
X12931495Y-5598724D01*
X12941019Y-5617771D01*
X12950543Y-5655867D01*
X12950543Y-5703486D01*
X12941019Y-5741581D01*
X12931495Y-5760628D01*
X12921971Y-5770152D01*
X12902924Y-5779676D01*
X12883876Y-5779676D01*
X12864828Y-5770152D01*
X12855305Y-5760628D01*
X12845781Y-5741581D01*
X12836257Y-5703486D01*
X12836257Y-5655867D01*
X12845781Y-5617771D01*
X12855305Y-5598724D01*
X12864828Y-5589200D01*
X12883876Y-5579676D01*
X13036257Y-5760628D02*
X13045781Y-5770152D01*
X13036257Y-5779676D01*
X13026733Y-5770152D01*
X13036257Y-5760628D01*
X13036257Y-5779676D01*
X13169590Y-5579676D02*
X13188638Y-5579676D01*
X13207686Y-5589200D01*
X13217209Y-5598724D01*
X13226733Y-5617771D01*
X13236257Y-5655867D01*
X13236257Y-5703486D01*
X13226733Y-5741581D01*
X13217209Y-5760628D01*
X13207686Y-5770152D01*
X13188638Y-5779676D01*
X13169590Y-5779676D01*
X13150543Y-5770152D01*
X13141019Y-5760628D01*
X13131495Y-5741581D01*
X13121971Y-5703486D01*
X13121971Y-5655867D01*
X13131495Y-5617771D01*
X13141019Y-5598724D01*
X13150543Y-5589200D01*
X13169590Y-5579676D01*
X13302924Y-5579676D02*
X13426733Y-5579676D01*
X13360067Y-5655867D01*
X13388638Y-5655867D01*
X13407686Y-5665390D01*
X13417209Y-5674914D01*
X13426733Y-5693962D01*
X13426733Y-5741581D01*
X13417209Y-5760628D01*
X13407686Y-5770152D01*
X13388638Y-5779676D01*
X13331495Y-5779676D01*
X13312448Y-5770152D01*
X13302924Y-5760628D01*
X13521971Y-5779676D02*
X13560067Y-5779676D01*
X13579114Y-5770152D01*
X13588638Y-5760628D01*
X13607686Y-5732057D01*
X13617209Y-5693962D01*
X13617209Y-5617771D01*
X13607686Y-5598724D01*
X13598162Y-5589200D01*
X13579114Y-5579676D01*
X13541019Y-5579676D01*
X13521971Y-5589200D01*
X13512448Y-5598724D01*
X13502924Y-5617771D01*
X13502924Y-5665390D01*
X13512448Y-5684438D01*
X13521971Y-5693962D01*
X13541019Y-5703486D01*
X13579114Y-5703486D01*
X13598162Y-5693962D01*
X13607686Y-5684438D01*
X13617209Y-5665390D01*
X13788638Y-5646343D02*
X13788638Y-5779676D01*
X13741019Y-5570152D02*
X13693400Y-5713009D01*
X13817209Y-5713009D01*
X13883876Y-5579676D02*
X13883876Y-5617771D01*
X13960067Y-5579676D02*
X13960067Y-5617771D01*
X14255305Y-5855867D02*
X14245781Y-5846343D01*
X14226733Y-5817771D01*
X14217209Y-5798724D01*
X14207686Y-5770152D01*
X14198162Y-5722533D01*
X14198162Y-5684438D01*
X14207686Y-5636819D01*
X14217209Y-5608248D01*
X14226733Y-5589200D01*
X14245781Y-5560629D01*
X14255305Y-5551105D01*
X14312448Y-5579676D02*
X14445781Y-5579676D01*
X14360067Y-5779676D01*
X14674352Y-5779676D02*
X14674352Y-5579676D01*
X14760067Y-5779676D02*
X14760067Y-5674914D01*
X14750543Y-5655867D01*
X14731495Y-5646343D01*
X14702924Y-5646343D01*
X14683876Y-5655867D01*
X14674352Y-5665390D01*
X14883876Y-5779676D02*
X14864828Y-5770152D01*
X14855305Y-5760628D01*
X14845781Y-5741581D01*
X14845781Y-5684438D01*
X14855305Y-5665390D01*
X14864828Y-5655867D01*
X14883876Y-5646343D01*
X14912448Y-5646343D01*
X14931495Y-5655867D01*
X14941019Y-5665390D01*
X14950543Y-5684438D01*
X14950543Y-5741581D01*
X14941019Y-5760628D01*
X14931495Y-5770152D01*
X14912448Y-5779676D01*
X14883876Y-5779676D01*
X15064828Y-5779676D02*
X15045781Y-5770152D01*
X15036257Y-5751105D01*
X15036257Y-5579676D01*
X15217209Y-5770152D02*
X15198162Y-5779676D01*
X15160067Y-5779676D01*
X15141019Y-5770152D01*
X15131495Y-5751105D01*
X15131495Y-5674914D01*
X15141019Y-5655867D01*
X15160067Y-5646343D01*
X15198162Y-5646343D01*
X15217209Y-5655867D01*
X15226733Y-5674914D01*
X15226733Y-5693962D01*
X15131495Y-5713009D01*
X15302924Y-5770152D02*
X15321971Y-5779676D01*
X15360067Y-5779676D01*
X15379114Y-5770152D01*
X15388638Y-5751105D01*
X15388638Y-5741581D01*
X15379114Y-5722533D01*
X15360067Y-5713009D01*
X15331495Y-5713009D01*
X15312448Y-5703486D01*
X15302924Y-5684438D01*
X15302924Y-5674914D01*
X15312448Y-5655867D01*
X15331495Y-5646343D01*
X15360067Y-5646343D01*
X15379114Y-5655867D01*
X15455305Y-5855867D02*
X15464828Y-5846343D01*
X15483876Y-5817771D01*
X15493400Y-5798724D01*
X15502924Y-5770152D01*
X15512448Y-5722533D01*
X15512448Y-5684438D01*
X15502924Y-5636819D01*
X15493400Y-5608248D01*
X15483876Y-5589200D01*
X15464828Y-5560629D01*
X15455305Y-5551105D01*
M02*
