%TF.GenerationSoftware,KiCad,Pcbnew,6.0.9-8da3e8f707~116~ubuntu22.04.1*%
%TF.CreationDate,2022-11-27T05:06:45+05:30*%
%TF.ProjectId,meshy-tron,6d657368-792d-4747-926f-6e2e6b696361,rev?*%
%TF.SameCoordinates,Original*%
%TF.FileFunction,Drillmap*%
%TF.FilePolarity,Positive*%
%FSLAX45Y45*%
G04 Gerber Fmt 4.5, Leading zero omitted, Abs format (unit mm)*
G04 Created by KiCad (PCBNEW 6.0.9-8da3e8f707~116~ubuntu22.04.1) date 2022-11-27 05:06:45*
%MOMM*%
%LPD*%
G01*
G04 APERTURE LIST*
%ADD10C,0.200000*%
G04 APERTURE END LIST*
D10*
X12703081Y-3279681D02*
X12703081Y-3324318D01*
X12903200Y-3073400D02*
G75*
G03*
X12849318Y-3095718I0J-76200D01*
G01*
X12725400Y-3225800D02*
X12849318Y-3095718D01*
X12979400Y-3149600D02*
G75*
G03*
X12903200Y-3073400I-76200J0D01*
G01*
X12725400Y-3225800D02*
G75*
G03*
X12703081Y-3279681I53882J-53882D01*
G01*
X12703082Y-3324318D02*
G75*
G03*
X12725400Y-3378200I76200J0D01*
G01*
X12849318Y-3508281D02*
X12725400Y-3378200D01*
X12849318Y-3508281D02*
G75*
G03*
X12903200Y-3530600I53882J53882D01*
G01*
X12903200Y-3530600D02*
G75*
G03*
X12979400Y-3454400I0J76200D01*
G01*
X12700000Y-4775200D02*
X10845800Y-4775200D01*
X14554200Y-4775200D02*
G75*
G03*
X14706600Y-4622800I0J152400D01*
G01*
X10693400Y-4622800D02*
X10693400Y-3873500D01*
X14554200Y-4775200D02*
X12700000Y-4775200D01*
X10693400Y-4622800D02*
G75*
G03*
X10845800Y-4775200I152400J0D01*
G01*
X14706600Y-4622800D02*
X14706600Y-3873500D01*
X14706600Y-3124200D02*
X14706600Y-3873500D01*
X12979400Y-3454400D02*
X12979400Y-3149600D01*
X14706600Y-3124200D02*
G75*
G03*
X14554200Y-2971800I-152400J0D01*
G01*
X12700000Y-2971800D02*
X14554200Y-2971800D01*
X10845800Y-2971800D02*
X12700000Y-2971800D01*
X10693400Y-3124200D02*
X10693400Y-3873500D01*
X10845800Y-2971800D02*
G75*
G03*
X10693400Y-3124200I0J-152400D01*
G01*
X10941019Y-5095676D02*
X10941019Y-4895676D01*
X10988638Y-4895676D01*
X11017210Y-4905200D01*
X11036257Y-4924248D01*
X11045781Y-4943295D01*
X11055305Y-4981390D01*
X11055305Y-5009962D01*
X11045781Y-5048057D01*
X11036257Y-5067105D01*
X11017210Y-5086152D01*
X10988638Y-5095676D01*
X10941019Y-5095676D01*
X11141019Y-5095676D02*
X11141019Y-4962343D01*
X11141019Y-5000438D02*
X11150543Y-4981390D01*
X11160067Y-4971867D01*
X11179114Y-4962343D01*
X11198162Y-4962343D01*
X11264828Y-5095676D02*
X11264828Y-4962343D01*
X11264828Y-4895676D02*
X11255305Y-4905200D01*
X11264828Y-4914724D01*
X11274352Y-4905200D01*
X11264828Y-4895676D01*
X11264828Y-4914724D01*
X11388638Y-5095676D02*
X11369590Y-5086152D01*
X11360067Y-5067105D01*
X11360067Y-4895676D01*
X11493400Y-5095676D02*
X11474352Y-5086152D01*
X11464828Y-5067105D01*
X11464828Y-4895676D01*
X11721971Y-5095676D02*
X11721971Y-4895676D01*
X11788638Y-5038533D01*
X11855305Y-4895676D01*
X11855305Y-5095676D01*
X12036257Y-5095676D02*
X12036257Y-4990914D01*
X12026733Y-4971867D01*
X12007686Y-4962343D01*
X11969590Y-4962343D01*
X11950543Y-4971867D01*
X12036257Y-5086152D02*
X12017209Y-5095676D01*
X11969590Y-5095676D01*
X11950543Y-5086152D01*
X11941019Y-5067105D01*
X11941019Y-5048057D01*
X11950543Y-5029010D01*
X11969590Y-5019486D01*
X12017209Y-5019486D01*
X12036257Y-5009962D01*
X12131495Y-4962343D02*
X12131495Y-5162343D01*
X12131495Y-4971867D02*
X12150543Y-4962343D01*
X12188638Y-4962343D01*
X12207686Y-4971867D01*
X12217209Y-4981390D01*
X12226733Y-5000438D01*
X12226733Y-5057581D01*
X12217209Y-5076629D01*
X12207686Y-5086152D01*
X12188638Y-5095676D01*
X12150543Y-5095676D01*
X12131495Y-5086152D01*
X12312448Y-5076629D02*
X12321971Y-5086152D01*
X12312448Y-5095676D01*
X12302924Y-5086152D01*
X12312448Y-5076629D01*
X12312448Y-5095676D01*
X12312448Y-4971867D02*
X12321971Y-4981390D01*
X12312448Y-4990914D01*
X12302924Y-4981390D01*
X12312448Y-4971867D01*
X12312448Y-4990914D01*
M02*
