G04 #@! TF.GenerationSoftware,KiCad,Pcbnew,6.0.9-8da3e8f707~116~ubuntu22.04.1*
G04 #@! TF.CreationDate,2022-11-27T05:06:29+05:30*
G04 #@! TF.ProjectId,meshy-tron,6d657368-792d-4747-926f-6e2e6b696361,rev?*
G04 #@! TF.SameCoordinates,Original*
G04 #@! TF.FileFunction,Copper,L1,Top*
G04 #@! TF.FilePolarity,Positive*
%FSLAX46Y46*%
G04 Gerber Fmt 4.6, Leading zero omitted, Abs format (unit mm)*
G04 Created by KiCad (PCBNEW 6.0.9-8da3e8f707~116~ubuntu22.04.1) date 2022-11-27 05:06:29*
%MOMM*%
%LPD*%
G01*
G04 APERTURE LIST*
G04 Aperture macros list*
%AMRoundRect*
0 Rectangle with rounded corners*
0 $1 Rounding radius*
0 $2 $3 $4 $5 $6 $7 $8 $9 X,Y pos of 4 corners*
0 Add a 4 corners polygon primitive as box body*
4,1,4,$2,$3,$4,$5,$6,$7,$8,$9,$2,$3,0*
0 Add four circle primitives for the rounded corners*
1,1,$1+$1,$2,$3*
1,1,$1+$1,$4,$5*
1,1,$1+$1,$6,$7*
1,1,$1+$1,$8,$9*
0 Add four rect primitives between the rounded corners*
20,1,$1+$1,$2,$3,$4,$5,0*
20,1,$1+$1,$4,$5,$6,$7,0*
20,1,$1+$1,$6,$7,$8,$9,0*
20,1,$1+$1,$8,$9,$2,$3,0*%
%AMFreePoly0*
4,1,17,-1.500000,1.875000,-1.080000,1.875000,-1.080000,2.925000,-0.230000,2.925000,-0.230000,1.875000,0.230000,1.875000,0.230000,2.925000,1.080000,2.925000,1.080000,1.875000,1.500000,1.875000,1.500000,2.925000,2.350000,2.925000,2.350000,-1.875000,-2.350000,-1.875000,-2.350000,2.925000,-1.500000,2.925000,-1.500000,1.875000,-1.500000,1.875000,$1*%
%AMFreePoly1*
4,1,20,0.000000,0.744959,0.073905,0.744508,0.209726,0.703889,0.328688,0.626782,0.421226,0.519385,0.479903,0.390333,0.500000,0.250000,0.500000,-0.250000,0.499851,-0.262216,0.476331,-0.402017,0.414519,-0.529596,0.319384,-0.634700,0.198574,-0.708877,0.061801,-0.746166,0.000000,-0.745033,0.000000,-0.750000,-0.500000,-0.750000,-0.500000,0.750000,0.000000,0.750000,0.000000,0.744959,
0.000000,0.744959,$1*%
%AMFreePoly2*
4,1,22,0.500000,-0.750000,0.000000,-0.750000,0.000000,-0.745033,-0.079941,-0.743568,-0.215256,-0.701293,-0.333266,-0.622738,-0.424486,-0.514219,-0.481581,-0.384460,-0.499164,-0.250000,-0.500000,-0.250000,-0.500000,0.250000,-0.499164,0.250000,-0.499963,0.256109,-0.478152,0.396186,-0.417904,0.524511,-0.324060,0.630769,-0.204165,0.706417,-0.067858,0.745374,0.000000,0.744959,0.000000,0.750000,
0.500000,0.750000,0.500000,-0.750000,0.500000,-0.750000,$1*%
G04 Aperture macros list end*
G04 #@! TA.AperFunction,ComponentPad*
%ADD10R,1.700000X1.700000*%
G04 #@! TD*
G04 #@! TA.AperFunction,SMDPad,CuDef*
%ADD11RoundRect,0.237500X-0.237500X0.300000X-0.237500X-0.300000X0.237500X-0.300000X0.237500X0.300000X0*%
G04 #@! TD*
G04 #@! TA.AperFunction,ComponentPad*
%ADD12O,1.700000X1.700000*%
G04 #@! TD*
G04 #@! TA.AperFunction,SMDPad,CuDef*
%ADD13RoundRect,0.237500X0.237500X-0.250000X0.237500X0.250000X-0.237500X0.250000X-0.237500X-0.250000X0*%
G04 #@! TD*
G04 #@! TA.AperFunction,SMDPad,CuDef*
%ADD14RoundRect,0.191667X0.758333X-0.383333X0.758333X0.383333X-0.758333X0.383333X-0.758333X-0.383333X0*%
G04 #@! TD*
G04 #@! TA.AperFunction,SMDPad,CuDef*
%ADD15RoundRect,0.200000X0.750000X-0.400000X0.750000X0.400000X-0.750000X0.400000X-0.750000X-0.400000X0*%
G04 #@! TD*
G04 #@! TA.AperFunction,SMDPad,CuDef*
%ADD16RoundRect,0.237500X0.237500X-0.300000X0.237500X0.300000X-0.237500X0.300000X-0.237500X-0.300000X0*%
G04 #@! TD*
G04 #@! TA.AperFunction,SMDPad,CuDef*
%ADD17FreePoly0,0.000000*%
G04 #@! TD*
G04 #@! TA.AperFunction,SMDPad,CuDef*
%ADD18RoundRect,0.127500X-0.297500X-0.597500X0.297500X-0.597500X0.297500X0.597500X-0.297500X0.597500X0*%
G04 #@! TD*
G04 #@! TA.AperFunction,SMDPad,CuDef*
%ADD19R,0.450000X1.450000*%
G04 #@! TD*
G04 #@! TA.AperFunction,SMDPad,CuDef*
%ADD20C,1.000000*%
G04 #@! TD*
G04 #@! TA.AperFunction,SMDPad,CuDef*
%ADD21R,1.300000X1.600000*%
G04 #@! TD*
G04 #@! TA.AperFunction,SMDPad,CuDef*
%ADD22R,2.000000X1.600000*%
G04 #@! TD*
G04 #@! TA.AperFunction,SMDPad,CuDef*
%ADD23RoundRect,0.237500X0.250000X0.237500X-0.250000X0.237500X-0.250000X-0.237500X0.250000X-0.237500X0*%
G04 #@! TD*
G04 #@! TA.AperFunction,SMDPad,CuDef*
%ADD24RoundRect,0.237500X-0.237500X0.250000X-0.237500X-0.250000X0.237500X-0.250000X0.237500X0.250000X0*%
G04 #@! TD*
G04 #@! TA.AperFunction,SMDPad,CuDef*
%ADD25RoundRect,0.250000X1.075000X-0.400000X1.075000X0.400000X-1.075000X0.400000X-1.075000X-0.400000X0*%
G04 #@! TD*
G04 #@! TA.AperFunction,SMDPad,CuDef*
%ADD26RoundRect,0.250000X-0.400000X-1.075000X0.400000X-1.075000X0.400000X1.075000X-0.400000X1.075000X0*%
G04 #@! TD*
G04 #@! TA.AperFunction,SMDPad,CuDef*
%ADD27RoundRect,0.250000X0.400000X0.625000X-0.400000X0.625000X-0.400000X-0.625000X0.400000X-0.625000X0*%
G04 #@! TD*
G04 #@! TA.AperFunction,SMDPad,CuDef*
%ADD28RoundRect,0.237500X-0.250000X-0.237500X0.250000X-0.237500X0.250000X0.237500X-0.250000X0.237500X0*%
G04 #@! TD*
G04 #@! TA.AperFunction,SMDPad,CuDef*
%ADD29R,1.500000X0.450000*%
G04 #@! TD*
G04 #@! TA.AperFunction,SMDPad,CuDef*
%ADD30R,0.450000X1.500000*%
G04 #@! TD*
G04 #@! TA.AperFunction,SMDPad,CuDef*
%ADD31FreePoly1,90.000000*%
G04 #@! TD*
G04 #@! TA.AperFunction,SMDPad,CuDef*
%ADD32FreePoly2,90.000000*%
G04 #@! TD*
G04 #@! TA.AperFunction,SMDPad,CuDef*
%ADD33RoundRect,0.250000X0.325000X0.450000X-0.325000X0.450000X-0.325000X-0.450000X0.325000X-0.450000X0*%
G04 #@! TD*
G04 #@! TA.AperFunction,SMDPad,CuDef*
%ADD34R,3.500000X1.800000*%
G04 #@! TD*
G04 #@! TA.AperFunction,SMDPad,CuDef*
%ADD35RoundRect,0.250000X0.412500X0.650000X-0.412500X0.650000X-0.412500X-0.650000X0.412500X-0.650000X0*%
G04 #@! TD*
G04 #@! TA.AperFunction,SMDPad,CuDef*
%ADD36RoundRect,0.250000X0.537500X1.450000X-0.537500X1.450000X-0.537500X-1.450000X0.537500X-1.450000X0*%
G04 #@! TD*
G04 #@! TA.AperFunction,SMDPad,CuDef*
%ADD37RoundRect,0.237500X-0.300000X-0.237500X0.300000X-0.237500X0.300000X0.237500X-0.300000X0.237500X0*%
G04 #@! TD*
G04 #@! TA.AperFunction,SMDPad,CuDef*
%ADD38RoundRect,0.250000X-0.650000X0.412500X-0.650000X-0.412500X0.650000X-0.412500X0.650000X0.412500X0*%
G04 #@! TD*
G04 #@! TA.AperFunction,ViaPad*
%ADD39C,0.500000*%
G04 #@! TD*
G04 #@! TA.AperFunction,Conductor*
%ADD40C,0.200000*%
G04 #@! TD*
G04 #@! TA.AperFunction,Conductor*
%ADD41C,0.400000*%
G04 #@! TD*
G04 APERTURE END LIST*
D10*
X145034000Y-43180000D03*
X145034000Y-34290000D03*
D11*
X113919000Y-40994500D03*
X113919000Y-39269500D03*
D10*
X108966000Y-45720000D03*
D12*
X108966000Y-43180000D03*
X108966000Y-40640000D03*
X108966000Y-34295000D03*
D10*
X108966000Y-36835000D03*
D13*
X115570000Y-31091500D03*
X115570000Y-32916500D03*
D14*
X131650000Y-33020000D03*
D15*
X131650000Y-31345000D03*
X131650000Y-34695000D03*
X122350000Y-31345000D03*
X122350000Y-34695000D03*
D16*
X113919000Y-42952500D03*
X113919000Y-44677500D03*
D17*
X123698000Y-39654000D03*
D18*
X121773000Y-42954000D03*
X124353000Y-42954000D03*
X123043000Y-42954000D03*
X125623000Y-42954000D03*
D19*
X115611000Y-44110000D03*
X116261000Y-44110000D03*
X116911000Y-44110000D03*
X117561000Y-44110000D03*
X117561000Y-39710000D03*
X116911000Y-39710000D03*
X116261000Y-39710000D03*
X115611000Y-39710000D03*
D20*
X145034000Y-46228000D03*
X134874000Y-35052000D03*
X108966000Y-31242000D03*
X119507000Y-43434000D03*
X138684000Y-42926000D03*
X119507000Y-41402000D03*
X112014000Y-44450000D03*
X131572000Y-41148000D03*
X112014000Y-42418000D03*
X112014000Y-46482000D03*
X112014000Y-40386000D03*
D21*
X128544000Y-43254000D03*
D22*
X129794000Y-46154000D03*
D21*
X131044000Y-43254000D03*
D23*
X127865500Y-37084000D03*
X129690500Y-37084000D03*
D24*
X138684000Y-46632500D03*
X138684000Y-44807500D03*
D25*
X141478000Y-43408000D03*
X141478000Y-46508000D03*
D26*
X136678000Y-45466000D03*
X133578000Y-45466000D03*
D23*
X127865500Y-41148000D03*
X129690500Y-41148000D03*
D26*
X136678000Y-42164000D03*
X133578000Y-42164000D03*
D23*
X140311500Y-41148000D03*
X142136500Y-41148000D03*
D27*
X121767000Y-45466000D03*
X124867000Y-45466000D03*
D28*
X115720500Y-46355000D03*
X113895500Y-46355000D03*
D24*
X117348000Y-36472500D03*
X117348000Y-34647500D03*
D28*
X113942500Y-32512000D03*
X112117500Y-32512000D03*
D24*
X115570000Y-36472500D03*
X115570000Y-34647500D03*
D29*
X132274000Y-38100000D03*
X134934000Y-37450000D03*
X134934000Y-38750000D03*
D30*
X113284000Y-37144000D03*
X112634000Y-34484000D03*
X113934000Y-34484000D03*
D31*
X119380000Y-36546000D03*
D32*
X119380000Y-37846000D03*
D33*
X128007000Y-39116000D03*
X130057000Y-39116000D03*
D34*
X135930000Y-31750000D03*
X140930000Y-31750000D03*
D35*
X138645500Y-39116000D03*
X141770500Y-39116000D03*
D36*
X137562500Y-35814000D03*
X141837500Y-35814000D03*
D37*
X119353500Y-46355000D03*
X117628500Y-46355000D03*
D38*
X119380000Y-34328500D03*
X119380000Y-31203500D03*
D11*
X117348000Y-32866500D03*
X117348000Y-31141500D03*
D39*
X112014000Y-37084000D03*
X110617000Y-39624000D03*
X128143000Y-46101000D03*
X116775497Y-42799000D03*
X124206000Y-42418000D03*
X116075994Y-42799000D03*
X115720500Y-46355000D03*
X120523000Y-46015500D03*
X120523000Y-44916500D03*
X119380000Y-46355000D03*
X117602000Y-46355000D03*
X134874000Y-36576000D03*
X135128000Y-46609000D03*
X138684000Y-46632500D03*
X129794000Y-41148000D03*
X138684000Y-44831000D03*
X138938000Y-39116000D03*
X138430000Y-38608000D03*
X138430000Y-39624000D03*
X137287000Y-37084000D03*
X137287000Y-36322000D03*
X137287000Y-35306000D03*
X137287000Y-34544000D03*
X134874000Y-35052000D03*
X132207000Y-34671000D03*
X131064000Y-34671000D03*
X122428000Y-36068000D03*
X119761000Y-37846000D03*
X118999000Y-37846000D03*
X117602000Y-41021000D03*
X124587000Y-45466000D03*
X125095000Y-45974000D03*
X125095000Y-44958000D03*
X119507000Y-43434000D03*
X117687500Y-42799000D03*
X113919000Y-42926000D03*
X113919000Y-41021000D03*
X112014000Y-34544000D03*
X112014000Y-32512000D03*
X117348000Y-33020000D03*
X119888000Y-34290000D03*
X118872000Y-34290000D03*
D40*
X116261000Y-39710000D02*
X116261000Y-38298000D01*
X116261000Y-38298000D02*
X117348000Y-37211000D01*
X117348000Y-37211000D02*
X117348000Y-36472500D01*
X113284000Y-37144000D02*
X114042500Y-37144000D01*
X114042500Y-37144000D02*
X114744500Y-37846000D01*
X114744500Y-37846000D02*
X116078000Y-37846000D01*
X116078000Y-37846000D02*
X116435500Y-37488500D01*
X116435500Y-35560000D02*
X117348000Y-34647500D01*
X116435500Y-37488500D02*
X116435500Y-35560000D01*
X145034000Y-46228000D02*
X141758000Y-46228000D01*
X141758000Y-46228000D02*
X141478000Y-46508000D01*
X127865500Y-37084000D02*
X127865500Y-35917500D01*
X125984000Y-34036000D02*
X125984000Y-32512000D01*
X127865500Y-35917500D02*
X125984000Y-34036000D01*
X125984000Y-32512000D02*
X124817000Y-31345000D01*
X124817000Y-31345000D02*
X122350000Y-31345000D01*
X110617000Y-42545000D02*
X109982000Y-43180000D01*
X110617000Y-39624000D02*
X110617000Y-42545000D01*
X109982000Y-43180000D02*
X108966000Y-43180000D01*
X112014000Y-37084000D02*
X112014000Y-36322000D01*
X112522000Y-35814000D02*
X114911500Y-35814000D01*
X112014000Y-36322000D02*
X112522000Y-35814000D01*
X114911500Y-35814000D02*
X115570000Y-36472500D01*
X112014000Y-34544000D02*
X112574000Y-34544000D01*
X112574000Y-34544000D02*
X112634000Y-34484000D01*
X113934000Y-33132000D02*
X113942500Y-33123500D01*
X115406500Y-34484000D02*
X113934000Y-34484000D01*
X115570000Y-34647500D02*
X115406500Y-34484000D01*
X113934000Y-34484000D02*
X113934000Y-33132000D01*
X113942500Y-33123500D02*
X113942500Y-32512000D01*
X116261000Y-40819000D02*
X116059000Y-41021000D01*
X116261000Y-39710000D02*
X116261000Y-40819000D01*
X116059000Y-41021000D02*
X115316000Y-41021000D01*
X115316000Y-41021000D02*
X114402000Y-40107000D01*
X114402000Y-40107000D02*
X112293000Y-40107000D01*
X112293000Y-40107000D02*
X112014000Y-40386000D01*
X112522000Y-41910000D02*
X115639314Y-41910000D01*
X112014000Y-42418000D02*
X112522000Y-41910000D01*
X115639314Y-41910000D02*
X115766314Y-42037000D01*
X115766314Y-42037000D02*
X116967000Y-42037000D01*
X112014000Y-44450000D02*
X112649000Y-43815000D01*
X112649000Y-43815000D02*
X114681000Y-43815000D01*
X114681000Y-43815000D02*
X114976000Y-44110000D01*
X114976000Y-44110000D02*
X115611000Y-44110000D01*
X112014000Y-46482000D02*
X112014000Y-46736000D01*
X112014000Y-46736000D02*
X112522000Y-47244000D01*
X112522000Y-47244000D02*
X114935000Y-47244000D01*
X114935000Y-47244000D02*
X115720500Y-46458500D01*
X115720500Y-46458500D02*
X115720500Y-46355000D01*
X128196000Y-46154000D02*
X128143000Y-46101000D01*
X129794000Y-46154000D02*
X128196000Y-46154000D01*
X117687500Y-42799000D02*
X117561000Y-42925500D01*
X117561000Y-42925500D02*
X117561000Y-44110000D01*
X116075994Y-42799000D02*
X116075994Y-42877315D01*
X116075994Y-42877315D02*
X116261000Y-43062321D01*
X116261000Y-43062321D02*
X116261000Y-44110000D01*
X116911000Y-42934503D02*
X116911000Y-44110000D01*
X116775497Y-42799000D02*
X116911000Y-42934503D01*
X116967000Y-42037000D02*
X117855999Y-42037000D01*
X117855999Y-42037000D02*
X118237000Y-42418001D01*
X118237000Y-42418001D02*
X118237000Y-44450000D01*
X118237000Y-44450000D02*
X118703500Y-44916500D01*
X118703500Y-44916500D02*
X120523000Y-44916500D01*
X116911000Y-39710000D02*
X116911000Y-41981000D01*
X116911000Y-41981000D02*
X116967000Y-42037000D01*
X120523000Y-46482000D02*
X121031000Y-46990000D01*
X120523000Y-46015500D02*
X120523000Y-46482000D01*
X115824000Y-45466000D02*
X117602000Y-45466000D01*
X117602000Y-45466000D02*
X121767000Y-45466000D01*
X117602000Y-46355000D02*
X117602000Y-45466000D01*
X115611000Y-44110000D02*
X115611000Y-45253000D01*
X115611000Y-45253000D02*
X115824000Y-45466000D01*
X125730000Y-46990000D02*
X126365000Y-46355000D01*
X121031000Y-46990000D02*
X125730000Y-46990000D01*
X126365000Y-46355000D02*
X126365000Y-43942000D01*
X126365000Y-43942000D02*
X125623000Y-43200000D01*
X125623000Y-43200000D02*
X125623000Y-42954000D01*
X131572000Y-41148000D02*
X130810000Y-41910000D01*
X130810000Y-41910000D02*
X130175000Y-41910000D01*
X129794000Y-42291000D02*
X129794000Y-46154000D01*
X130175000Y-41910000D02*
X129794000Y-42291000D01*
X133578000Y-42164000D02*
X132588000Y-42164000D01*
X132588000Y-42164000D02*
X132334000Y-42418000D01*
X132334000Y-42418000D02*
X132334000Y-42926000D01*
X132334000Y-42926000D02*
X132006000Y-43254000D01*
X132006000Y-43254000D02*
X131044000Y-43254000D01*
X134874000Y-36576000D02*
X134934000Y-36636000D01*
X134934000Y-36636000D02*
X134934000Y-37450000D01*
X134934000Y-39684000D02*
X135128000Y-39878000D01*
X134934000Y-38750000D02*
X134934000Y-39684000D01*
X135128000Y-39878000D02*
X135128000Y-46609000D01*
X138684000Y-46632500D02*
X141353500Y-46632500D01*
X141353500Y-46632500D02*
X141478000Y-46508000D01*
X138684000Y-42926000D02*
X139319000Y-42926000D01*
X139319000Y-42926000D02*
X139801000Y-43408000D01*
X139801000Y-43408000D02*
X141478000Y-43408000D01*
X140311500Y-41148000D02*
X138303000Y-41148000D01*
X138303000Y-41148000D02*
X137922000Y-41529000D01*
X137922000Y-41529000D02*
X137313000Y-41529000D01*
X137313000Y-41529000D02*
X136678000Y-42164000D01*
X136678000Y-45466000D02*
X136678000Y-42164000D01*
X133578000Y-45466000D02*
X133578000Y-42164000D01*
X128544000Y-43254000D02*
X128544000Y-41826500D01*
X128544000Y-41826500D02*
X127865500Y-41148000D01*
X120269000Y-40640000D02*
X121285000Y-40640000D01*
X119507000Y-41402000D02*
X120269000Y-40640000D01*
X130057000Y-39116000D02*
X130057000Y-38853000D01*
X130057000Y-38853000D02*
X130810000Y-38100000D01*
X130810000Y-38100000D02*
X132274000Y-38100000D01*
X129690500Y-37084000D02*
X129690500Y-37432500D01*
X129690500Y-37432500D02*
X128007000Y-39116000D01*
X117561000Y-40980000D02*
X117602000Y-41021000D01*
X117561000Y-39710000D02*
X117561000Y-40980000D01*
X113919000Y-44677500D02*
X113919000Y-46331500D01*
X113919000Y-46331500D02*
X113895500Y-46355000D01*
D41*
X115570000Y-38608000D02*
X114554000Y-38608000D01*
X115611000Y-39710000D02*
X115611000Y-38649000D01*
X115611000Y-38649000D02*
X115570000Y-38608000D01*
X113919000Y-39243000D02*
X113919000Y-39269500D01*
X114554000Y-38608000D02*
X113919000Y-39243000D01*
D40*
X115570000Y-32916500D02*
X115750500Y-32916500D01*
X115750500Y-32916500D02*
X119380000Y-36546000D01*
G04 #@! TA.AperFunction,Conductor*
G36*
X123328986Y-30227578D02*
G01*
X123464903Y-30245472D01*
X123496676Y-30253985D01*
X123619175Y-30304726D01*
X123647659Y-30321172D01*
X123752852Y-30401890D01*
X123776110Y-30425148D01*
X123856828Y-30530341D01*
X123873275Y-30558827D01*
X123924015Y-30681325D01*
X123932528Y-30713097D01*
X123950922Y-30852812D01*
X123952000Y-30869258D01*
X123952000Y-31614742D01*
X123950922Y-31631188D01*
X123932528Y-31770903D01*
X123924015Y-31802675D01*
X123916632Y-31820500D01*
X123875075Y-31920828D01*
X123873275Y-31925173D01*
X123856828Y-31953659D01*
X123776110Y-32058852D01*
X123752852Y-32082110D01*
X123647659Y-32162828D01*
X123619175Y-32179274D01*
X123573235Y-32198303D01*
X123496675Y-32230015D01*
X123464903Y-32238528D01*
X123325188Y-32256922D01*
X123308742Y-32258000D01*
X118342111Y-32258000D01*
X118273990Y-32237998D01*
X118234967Y-32198303D01*
X118177970Y-32106197D01*
X118174116Y-32099969D01*
X118127645Y-32053579D01*
X118056184Y-31982242D01*
X118056179Y-31982238D01*
X118051003Y-31977071D01*
X118032809Y-31965856D01*
X117909150Y-31889631D01*
X117909148Y-31889630D01*
X117902920Y-31885791D01*
X117737809Y-31831026D01*
X117730973Y-31830326D01*
X117730970Y-31830325D01*
X117679474Y-31825049D01*
X117635072Y-31820500D01*
X117060928Y-31820500D01*
X117057682Y-31820837D01*
X117057678Y-31820837D01*
X116963765Y-31830581D01*
X116963761Y-31830582D01*
X116956907Y-31831293D01*
X116950371Y-31833474D01*
X116950369Y-31833474D01*
X116817605Y-31877768D01*
X116791893Y-31886346D01*
X116643969Y-31977884D01*
X116638796Y-31983066D01*
X116526242Y-32095816D01*
X116526238Y-32095821D01*
X116521071Y-32100997D01*
X116517231Y-32107226D01*
X116512693Y-32112973D01*
X116510837Y-32111507D01*
X116466496Y-32151412D01*
X116396425Y-32162833D01*
X116331301Y-32134558D01*
X116322993Y-32126974D01*
X116311665Y-32115665D01*
X116273003Y-32077071D01*
X116266772Y-32073230D01*
X116131150Y-31989631D01*
X116131148Y-31989630D01*
X116124920Y-31985791D01*
X115959809Y-31931026D01*
X115952973Y-31930326D01*
X115952970Y-31930325D01*
X115901474Y-31925049D01*
X115857072Y-31920500D01*
X115282928Y-31920500D01*
X115279682Y-31920837D01*
X115279678Y-31920837D01*
X115185765Y-31930581D01*
X115185761Y-31930582D01*
X115178907Y-31931293D01*
X115172371Y-31933474D01*
X115172369Y-31933474D01*
X115013893Y-31986346D01*
X115013478Y-31985101D01*
X114950849Y-31994724D01*
X114885987Y-31965856D01*
X114860432Y-31936142D01*
X114784970Y-31814197D01*
X114781116Y-31807969D01*
X114766062Y-31792941D01*
X114663184Y-31690242D01*
X114663179Y-31690238D01*
X114658003Y-31685071D01*
X114509920Y-31593791D01*
X114344809Y-31539026D01*
X114337973Y-31538326D01*
X114337970Y-31538325D01*
X114286474Y-31533049D01*
X114242072Y-31528500D01*
X113642928Y-31528500D01*
X113639682Y-31528837D01*
X113639678Y-31528837D01*
X113545765Y-31538581D01*
X113545761Y-31538582D01*
X113538907Y-31539293D01*
X113532371Y-31541474D01*
X113532369Y-31541474D01*
X113399605Y-31585768D01*
X113373893Y-31594346D01*
X113225969Y-31685884D01*
X113220796Y-31691066D01*
X113119253Y-31792786D01*
X113056970Y-31826865D01*
X112986150Y-31821862D01*
X112941063Y-31792941D01*
X112838188Y-31690246D01*
X112838183Y-31690242D01*
X112833003Y-31685071D01*
X112684920Y-31593791D01*
X112519809Y-31539026D01*
X112512973Y-31538326D01*
X112512970Y-31538325D01*
X112461474Y-31533049D01*
X112417072Y-31528500D01*
X111817928Y-31528500D01*
X111814682Y-31528837D01*
X111814678Y-31528837D01*
X111720765Y-31538581D01*
X111720761Y-31538582D01*
X111713907Y-31539293D01*
X111707371Y-31541474D01*
X111707369Y-31541474D01*
X111574605Y-31585768D01*
X111548893Y-31594346D01*
X111400969Y-31685884D01*
X111395796Y-31691066D01*
X111283242Y-31803816D01*
X111283238Y-31803821D01*
X111278071Y-31808997D01*
X111274231Y-31815227D01*
X111274230Y-31815228D01*
X111209132Y-31920837D01*
X111186791Y-31957080D01*
X111132026Y-32122191D01*
X111131326Y-32129027D01*
X111131325Y-32129030D01*
X111127862Y-32162833D01*
X111121500Y-32224928D01*
X111121500Y-32799072D01*
X111132293Y-32903093D01*
X111187346Y-33068107D01*
X111191202Y-33074338D01*
X111233144Y-33142116D01*
X111252000Y-33208419D01*
X111252000Y-34515722D01*
X111251752Y-34519663D01*
X111251658Y-34526351D01*
X111250775Y-34533343D01*
X111251462Y-34540351D01*
X111251455Y-34540863D01*
X111252000Y-34552003D01*
X111252000Y-37055722D01*
X111251752Y-37059663D01*
X111251658Y-37066351D01*
X111250775Y-37073343D01*
X111251462Y-37080351D01*
X111251455Y-37080863D01*
X111252000Y-37092003D01*
X111252000Y-37846000D01*
X111760000Y-38354000D01*
X112814488Y-38354000D01*
X112858717Y-38362018D01*
X112941289Y-38392973D01*
X112941291Y-38392973D01*
X112948684Y-38395745D01*
X112956532Y-38396598D01*
X112956534Y-38396598D01*
X113007469Y-38402131D01*
X113010866Y-38402500D01*
X113557134Y-38402500D01*
X113560531Y-38402131D01*
X113611466Y-38396598D01*
X113611468Y-38396598D01*
X113619316Y-38395745D01*
X113626709Y-38392973D01*
X113626711Y-38392973D01*
X113709283Y-38362018D01*
X113753512Y-38354000D01*
X114365274Y-38354000D01*
X114428275Y-38370882D01*
X114431075Y-38372499D01*
X114437624Y-38377524D01*
X114585649Y-38438838D01*
X114593836Y-38439916D01*
X114593837Y-38439916D01*
X114605042Y-38441391D01*
X114636238Y-38445498D01*
X114704615Y-38454500D01*
X114704618Y-38454500D01*
X114704626Y-38454501D01*
X114736311Y-38458672D01*
X114744500Y-38459750D01*
X114776193Y-38455578D01*
X114792636Y-38454500D01*
X115483832Y-38454500D01*
X115551953Y-38474502D01*
X115560535Y-38480537D01*
X115600124Y-38510914D01*
X115641992Y-38568251D01*
X115646214Y-38639122D01*
X115624247Y-38686441D01*
X115585385Y-38738295D01*
X115534255Y-38874684D01*
X115527500Y-38936866D01*
X115527500Y-40067761D01*
X115507498Y-40135882D01*
X115453842Y-40182375D01*
X115383568Y-40192479D01*
X115318988Y-40162985D01*
X115312405Y-40156856D01*
X114866315Y-39710766D01*
X114855448Y-39698375D01*
X114841013Y-39679563D01*
X114835987Y-39673013D01*
X114804075Y-39648526D01*
X114804072Y-39648523D01*
X114767728Y-39620635D01*
X114715429Y-39580504D01*
X114715427Y-39580503D01*
X114708876Y-39575476D01*
X114560851Y-39514162D01*
X114552664Y-39513084D01*
X114552663Y-39513084D01*
X114541458Y-39511609D01*
X114510262Y-39507502D01*
X114441885Y-39498500D01*
X114441882Y-39498500D01*
X114441874Y-39498499D01*
X114410189Y-39494328D01*
X114402000Y-39493250D01*
X114370307Y-39497422D01*
X114353864Y-39498500D01*
X112524951Y-39498500D01*
X112465022Y-39483336D01*
X112456127Y-39478526D01*
X112406701Y-39451802D01*
X112217768Y-39393318D01*
X112211643Y-39392674D01*
X112211642Y-39392674D01*
X112027204Y-39373289D01*
X112027202Y-39373289D01*
X112021075Y-39372645D01*
X111938576Y-39380153D01*
X111830251Y-39390011D01*
X111830248Y-39390012D01*
X111824112Y-39390570D01*
X111818206Y-39392308D01*
X111818202Y-39392309D01*
X111693414Y-39429036D01*
X111622417Y-39429080D01*
X111574129Y-39402336D01*
X111434356Y-39278094D01*
X111266578Y-39128958D01*
X111265301Y-39127806D01*
X111253539Y-39117038D01*
X111250854Y-39114506D01*
X111239425Y-39103407D01*
X111238111Y-39102111D01*
X110681832Y-38545832D01*
X110670964Y-38533441D01*
X110585170Y-38421632D01*
X110568725Y-38393147D01*
X110563563Y-38380683D01*
X110517985Y-38270649D01*
X110509472Y-38238877D01*
X110491078Y-38099162D01*
X110490000Y-38082716D01*
X110490000Y-36068000D01*
X110331086Y-35909086D01*
X110318737Y-35883123D01*
X110318598Y-35882540D01*
X110317745Y-35874684D01*
X110266615Y-35738295D01*
X110179261Y-35621739D01*
X110062705Y-35534385D01*
X109926316Y-35483255D01*
X109864134Y-35476500D01*
X108067866Y-35476500D01*
X108064469Y-35476869D01*
X108013534Y-35482402D01*
X108013532Y-35482402D01*
X108005684Y-35483255D01*
X107998291Y-35486027D01*
X107998289Y-35486027D01*
X107933546Y-35510298D01*
X107862739Y-35515481D01*
X107841099Y-35508725D01*
X107774827Y-35481274D01*
X107746341Y-35464828D01*
X107641148Y-35384111D01*
X107617890Y-35360852D01*
X107537172Y-35255659D01*
X107520725Y-35227173D01*
X107469985Y-35104675D01*
X107461472Y-35072903D01*
X107443578Y-34936986D01*
X107442500Y-34920540D01*
X107442500Y-31295250D01*
X107444246Y-31274345D01*
X107446770Y-31259344D01*
X107446770Y-31259341D01*
X107447576Y-31254552D01*
X107447729Y-31242000D01*
X107446542Y-31233709D01*
X107445748Y-31204870D01*
X107456967Y-31076640D01*
X107460781Y-31055011D01*
X107500889Y-30905327D01*
X107508401Y-30884688D01*
X107573893Y-30744240D01*
X107584875Y-30725219D01*
X107673762Y-30598275D01*
X107687880Y-30581451D01*
X107797451Y-30471880D01*
X107814275Y-30457762D01*
X107941219Y-30368875D01*
X107960240Y-30357893D01*
X108100688Y-30292401D01*
X108121327Y-30284889D01*
X108154943Y-30275881D01*
X108271015Y-30244780D01*
X108292638Y-30240968D01*
X108351794Y-30235792D01*
X108417393Y-30230053D01*
X108433871Y-30230607D01*
X108433876Y-30230200D01*
X108442853Y-30230310D01*
X108451724Y-30231691D01*
X108460626Y-30230527D01*
X108460628Y-30230527D01*
X108475677Y-30228559D01*
X108483286Y-30227564D01*
X108499621Y-30226500D01*
X123312540Y-30226500D01*
X123328986Y-30227578D01*
G37*
G04 #@! TD.AperFunction*
G04 #@! TA.AperFunction,Conductor*
G36*
X123071188Y-33783078D02*
G01*
X123210903Y-33801472D01*
X123242676Y-33809985D01*
X123365175Y-33860726D01*
X123393659Y-33877172D01*
X123498852Y-33957890D01*
X123522110Y-33981148D01*
X123602828Y-34086341D01*
X123619275Y-34114827D01*
X123670015Y-34237325D01*
X123678528Y-34269097D01*
X123696922Y-34408812D01*
X123698000Y-34425258D01*
X123698000Y-35306000D01*
X124206000Y-35814000D01*
X125848742Y-35814000D01*
X125865188Y-35815078D01*
X126004903Y-35833472D01*
X126036676Y-35841985D01*
X126159175Y-35892726D01*
X126187659Y-35909172D01*
X126292852Y-35989890D01*
X126316110Y-36013148D01*
X126396828Y-36118341D01*
X126413275Y-36146827D01*
X126464015Y-36269325D01*
X126472528Y-36301097D01*
X126490922Y-36440812D01*
X126492000Y-36457258D01*
X126492000Y-40885742D01*
X126490922Y-40902188D01*
X126472528Y-41041903D01*
X126464015Y-41073675D01*
X126413275Y-41196173D01*
X126396828Y-41224659D01*
X126316110Y-41329852D01*
X126292852Y-41353110D01*
X126187659Y-41433828D01*
X126159175Y-41450274D01*
X126076358Y-41484578D01*
X126036675Y-41501015D01*
X126004903Y-41509528D01*
X125865188Y-41527922D01*
X125848742Y-41529000D01*
X121547258Y-41529000D01*
X121530812Y-41527922D01*
X121391097Y-41509528D01*
X121359325Y-41501015D01*
X121319642Y-41484578D01*
X121236825Y-41450274D01*
X121208341Y-41433828D01*
X121103148Y-41353110D01*
X121079890Y-41329852D01*
X120999172Y-41224659D01*
X120982725Y-41196173D01*
X120931985Y-41073675D01*
X120923472Y-41041903D01*
X120905078Y-40902188D01*
X120904000Y-40885742D01*
X120904000Y-34425258D01*
X120905078Y-34408812D01*
X120923472Y-34269097D01*
X120931985Y-34237325D01*
X120982725Y-34114827D01*
X120999172Y-34086341D01*
X121079890Y-33981148D01*
X121103148Y-33957890D01*
X121208341Y-33877172D01*
X121236825Y-33860726D01*
X121359324Y-33809985D01*
X121391097Y-33801472D01*
X121530812Y-33783078D01*
X121547258Y-33782000D01*
X123054742Y-33782000D01*
X123071188Y-33783078D01*
G37*
G04 #@! TD.AperFunction*
G04 #@! TA.AperFunction,Conductor*
G36*
X124384705Y-42043807D02*
G01*
X124480904Y-42056472D01*
X124512674Y-42064985D01*
X124581859Y-42093642D01*
X124618777Y-42108934D01*
X124674057Y-42153483D01*
X124696478Y-42220846D01*
X124694508Y-42247979D01*
X124694132Y-42250040D01*
X124692337Y-42256217D01*
X124691832Y-42262629D01*
X124691832Y-42262631D01*
X124689693Y-42289808D01*
X124689692Y-42289821D01*
X124689500Y-42292267D01*
X124689501Y-43615732D01*
X124692337Y-43651783D01*
X124737169Y-43806094D01*
X124741204Y-43812916D01*
X124741204Y-43812917D01*
X124788187Y-43892361D01*
X124805646Y-43961177D01*
X124783129Y-44028509D01*
X124727785Y-44072978D01*
X124679733Y-44082500D01*
X124416600Y-44082500D01*
X124413354Y-44082837D01*
X124413350Y-44082837D01*
X124317692Y-44092762D01*
X124317688Y-44092763D01*
X124310834Y-44093474D01*
X124304298Y-44095655D01*
X124304296Y-44095655D01*
X124172194Y-44139728D01*
X124143054Y-44149450D01*
X124136822Y-44153306D01*
X124136823Y-44153306D01*
X124098301Y-44177144D01*
X124031998Y-44196000D01*
X122809000Y-44196000D01*
X122555000Y-44450000D01*
X122555000Y-45965742D01*
X122553922Y-45982188D01*
X122535528Y-46121903D01*
X122527015Y-46153675D01*
X122492266Y-46237568D01*
X122476275Y-46276173D01*
X122459830Y-46304658D01*
X122438693Y-46332204D01*
X122381355Y-46374071D01*
X122338730Y-46381500D01*
X121378044Y-46381500D01*
X121309923Y-46361498D01*
X121263430Y-46307842D01*
X121253326Y-46237568D01*
X121258186Y-46218765D01*
X121258065Y-46218734D01*
X121259816Y-46211914D01*
X121262319Y-46205325D01*
X121286001Y-46036813D01*
X121286299Y-46015500D01*
X121267331Y-45846392D01*
X121211368Y-45685689D01*
X121205383Y-45676110D01*
X121124926Y-45547355D01*
X121121192Y-45541379D01*
X121120788Y-45540973D01*
X121095114Y-45477535D01*
X121108286Y-45407771D01*
X121115549Y-45395357D01*
X121125876Y-45379814D01*
X121201891Y-45265402D01*
X121262319Y-45106325D01*
X121286001Y-44937813D01*
X121286299Y-44916500D01*
X121267331Y-44747392D01*
X121211368Y-44586689D01*
X121121192Y-44442379D01*
X121001286Y-44321632D01*
X120995337Y-44317857D01*
X120995335Y-44317855D01*
X120962486Y-44297008D01*
X120915687Y-44243619D01*
X120904000Y-44190623D01*
X120904000Y-42680258D01*
X120905078Y-42663812D01*
X120923472Y-42524097D01*
X120931985Y-42492325D01*
X120982725Y-42369827D01*
X120999172Y-42341341D01*
X121079890Y-42236148D01*
X121103148Y-42212890D01*
X121208341Y-42132172D01*
X121236825Y-42115726D01*
X121359324Y-42064985D01*
X121391096Y-42056472D01*
X121487295Y-42043807D01*
X121503742Y-42042729D01*
X124368258Y-42042729D01*
X124384705Y-42043807D01*
G37*
G04 #@! TD.AperFunction*
G04 #@! TA.AperFunction,Conductor*
G36*
X145804188Y-30481078D02*
G01*
X145943903Y-30499472D01*
X145975676Y-30507985D01*
X146098175Y-30558726D01*
X146126659Y-30575172D01*
X146231852Y-30655890D01*
X146255110Y-30679148D01*
X146335828Y-30784341D01*
X146352275Y-30812827D01*
X146403015Y-30935325D01*
X146411528Y-30967097D01*
X146429922Y-31106812D01*
X146431000Y-31123258D01*
X146431000Y-35424742D01*
X146429922Y-35441188D01*
X146411528Y-35580903D01*
X146403015Y-35612675D01*
X146352275Y-35735173D01*
X146335828Y-35763659D01*
X146255110Y-35868852D01*
X146231852Y-35892110D01*
X146126659Y-35972828D01*
X146098175Y-35989274D01*
X146015358Y-36023578D01*
X145975675Y-36040015D01*
X145943903Y-36048528D01*
X145804188Y-36066922D01*
X145787742Y-36068000D01*
X143764000Y-36068000D01*
X143256000Y-36576000D01*
X143256000Y-43754136D01*
X143254922Y-43770583D01*
X143243390Y-43858174D01*
X143234877Y-43889945D01*
X143204256Y-43963870D01*
X143187810Y-43992356D01*
X143139098Y-44055839D01*
X143115839Y-44079098D01*
X143052356Y-44127810D01*
X143023870Y-44144256D01*
X142949945Y-44174877D01*
X142918174Y-44183390D01*
X142830583Y-44194922D01*
X142814136Y-44196000D01*
X140395864Y-44196000D01*
X140379417Y-44194922D01*
X140291826Y-44183390D01*
X140260055Y-44174877D01*
X140186130Y-44144256D01*
X140157644Y-44127810D01*
X140094161Y-44079098D01*
X140070902Y-44055839D01*
X140022190Y-43992356D01*
X140005744Y-43963870D01*
X139975123Y-43889945D01*
X139966610Y-43858174D01*
X139955078Y-43770583D01*
X139954000Y-43754136D01*
X139954000Y-42986864D01*
X139955078Y-42970417D01*
X139966610Y-42882826D01*
X139975123Y-42851055D01*
X140005744Y-42777130D01*
X140022190Y-42748644D01*
X140070902Y-42685161D01*
X140094161Y-42661902D01*
X140157644Y-42613190D01*
X140186130Y-42596744D01*
X140260055Y-42566123D01*
X140291826Y-42557610D01*
X140379417Y-42546078D01*
X140395864Y-42545000D01*
X140970000Y-42545000D01*
X141478000Y-42037000D01*
X141478000Y-40640000D01*
X141034832Y-40196832D01*
X141023964Y-40184441D01*
X140938171Y-40072633D01*
X140921725Y-40044147D01*
X140870985Y-39921649D01*
X140862472Y-39889877D01*
X140844078Y-39750162D01*
X140843000Y-39733716D01*
X140843000Y-33909000D01*
X140335000Y-33401000D01*
X139454258Y-33401000D01*
X139437812Y-33399922D01*
X139298097Y-33381528D01*
X139266325Y-33373015D01*
X139226642Y-33356578D01*
X139143825Y-33322274D01*
X139115341Y-33305828D01*
X139010148Y-33225110D01*
X138986890Y-33201852D01*
X138906172Y-33096659D01*
X138889725Y-33068173D01*
X138838985Y-32945675D01*
X138830472Y-32913903D01*
X138812078Y-32774188D01*
X138811000Y-32757742D01*
X138811000Y-31123258D01*
X138812078Y-31106812D01*
X138830472Y-30967097D01*
X138838985Y-30935325D01*
X138889725Y-30812827D01*
X138906172Y-30784341D01*
X138986890Y-30679148D01*
X139010148Y-30655890D01*
X139115341Y-30575172D01*
X139143825Y-30558726D01*
X139266324Y-30507985D01*
X139298097Y-30499472D01*
X139437812Y-30481078D01*
X139454258Y-30480000D01*
X145787742Y-30480000D01*
X145804188Y-30481078D01*
G37*
G04 #@! TD.AperFunction*
G04 #@! TA.AperFunction,Conductor*
G36*
X137295188Y-30481078D02*
G01*
X137434903Y-30499472D01*
X137466676Y-30507985D01*
X137589175Y-30558726D01*
X137617659Y-30575172D01*
X137722852Y-30655890D01*
X137746110Y-30679148D01*
X137826828Y-30784341D01*
X137843275Y-30812827D01*
X137894015Y-30935325D01*
X137902528Y-30967097D01*
X137920922Y-31106812D01*
X137922000Y-31123258D01*
X137922000Y-32757742D01*
X137920922Y-32774188D01*
X137902528Y-32913903D01*
X137894015Y-32945675D01*
X137843275Y-33068173D01*
X137826828Y-33096659D01*
X137746110Y-33201852D01*
X137722852Y-33225110D01*
X137617659Y-33305828D01*
X137589175Y-33322274D01*
X137506358Y-33356578D01*
X137466675Y-33373015D01*
X137434903Y-33381528D01*
X137295188Y-33399922D01*
X137278742Y-33401000D01*
X134501258Y-33401000D01*
X134484812Y-33399922D01*
X134345097Y-33381528D01*
X134313325Y-33373015D01*
X134273642Y-33356578D01*
X134190825Y-33322274D01*
X134162341Y-33305828D01*
X134057148Y-33225110D01*
X134033890Y-33201852D01*
X133953172Y-33096659D01*
X133936725Y-33068173D01*
X133885985Y-32945675D01*
X133877472Y-32913903D01*
X133858000Y-32765999D01*
X133858000Y-32131000D01*
X132945091Y-32131000D01*
X132876970Y-32110998D01*
X132855996Y-32094095D01*
X132843535Y-32081634D01*
X132698578Y-31993845D01*
X132691331Y-31991574D01*
X132691329Y-31991573D01*
X132626358Y-31971212D01*
X132536866Y-31943167D01*
X132464306Y-31936500D01*
X130835694Y-31936500D01*
X130811250Y-31938746D01*
X130741585Y-31925061D01*
X130699758Y-31889979D01*
X130651171Y-31826659D01*
X130634725Y-31798173D01*
X130583985Y-31675675D01*
X130575472Y-31643903D01*
X130557078Y-31504188D01*
X130556000Y-31487742D01*
X130556000Y-31123258D01*
X130557078Y-31106812D01*
X130575472Y-30967097D01*
X130583985Y-30935325D01*
X130634725Y-30812827D01*
X130651172Y-30784341D01*
X130731890Y-30679148D01*
X130755148Y-30655890D01*
X130860341Y-30575172D01*
X130888825Y-30558726D01*
X131011324Y-30507985D01*
X131043097Y-30499472D01*
X131182812Y-30481078D01*
X131199258Y-30480000D01*
X137278742Y-30480000D01*
X137295188Y-30481078D01*
G37*
G04 #@! TD.AperFunction*
M02*
