G04 #@! TF.GenerationSoftware,KiCad,Pcbnew,6.0.9-8da3e8f707~116~ubuntu22.04.1*
G04 #@! TF.CreationDate,2022-11-27T05:06:29+05:30*
G04 #@! TF.ProjectId,meshy-tron,6d657368-792d-4747-926f-6e2e6b696361,rev?*
G04 #@! TF.SameCoordinates,Original*
G04 #@! TF.FileFunction,Soldermask,Top*
G04 #@! TF.FilePolarity,Negative*
%FSLAX46Y46*%
G04 Gerber Fmt 4.6, Leading zero omitted, Abs format (unit mm)*
G04 Created by KiCad (PCBNEW 6.0.9-8da3e8f707~116~ubuntu22.04.1) date 2022-11-27 05:06:29*
%MOMM*%
%LPD*%
G01*
G04 APERTURE LIST*
G04 Aperture macros list*
%AMRoundRect*
0 Rectangle with rounded corners*
0 $1 Rounding radius*
0 $2 $3 $4 $5 $6 $7 $8 $9 X,Y pos of 4 corners*
0 Add a 4 corners polygon primitive as box body*
4,1,4,$2,$3,$4,$5,$6,$7,$8,$9,$2,$3,0*
0 Add four circle primitives for the rounded corners*
1,1,$1+$1,$2,$3*
1,1,$1+$1,$4,$5*
1,1,$1+$1,$6,$7*
1,1,$1+$1,$8,$9*
0 Add four rect primitives between the rounded corners*
20,1,$1+$1,$2,$3,$4,$5,0*
20,1,$1+$1,$4,$5,$6,$7,0*
20,1,$1+$1,$6,$7,$8,$9,0*
20,1,$1+$1,$8,$9,$2,$3,0*%
%AMFreePoly0*
4,1,17,-1.500000,1.875000,-1.080000,1.875000,-1.080000,2.925000,-0.230000,2.925000,-0.230000,1.875000,0.230000,1.875000,0.230000,2.925000,1.080000,2.925000,1.080000,1.875000,1.500000,1.875000,1.500000,2.925000,2.350000,2.925000,2.350000,-1.875000,-2.350000,-1.875000,-2.350000,2.925000,-1.500000,2.925000,-1.500000,1.875000,-1.500000,1.875000,$1*%
%AMFreePoly1*
4,1,20,0.000000,0.744959,0.073905,0.744508,0.209726,0.703889,0.328688,0.626782,0.421226,0.519385,0.479903,0.390333,0.500000,0.250000,0.500000,-0.250000,0.499851,-0.262216,0.476331,-0.402017,0.414519,-0.529596,0.319384,-0.634700,0.198574,-0.708877,0.061801,-0.746166,0.000000,-0.745033,0.000000,-0.750000,-0.500000,-0.750000,-0.500000,0.750000,0.000000,0.750000,0.000000,0.744959,
0.000000,0.744959,$1*%
%AMFreePoly2*
4,1,22,0.500000,-0.750000,0.000000,-0.750000,0.000000,-0.745033,-0.079941,-0.743568,-0.215256,-0.701293,-0.333266,-0.622738,-0.424486,-0.514219,-0.481581,-0.384460,-0.499164,-0.250000,-0.500000,-0.250000,-0.500000,0.250000,-0.499164,0.250000,-0.499963,0.256109,-0.478152,0.396186,-0.417904,0.524511,-0.324060,0.630769,-0.204165,0.706417,-0.067858,0.745374,0.000000,0.744959,0.000000,0.750000,
0.500000,0.750000,0.500000,-0.750000,0.500000,-0.750000,$1*%
G04 Aperture macros list end*
%ADD10C,0.200000*%
%ADD11R,1.700000X1.700000*%
%ADD12RoundRect,0.237500X-0.237500X0.300000X-0.237500X-0.300000X0.237500X-0.300000X0.237500X0.300000X0*%
%ADD13O,1.700000X1.700000*%
%ADD14RoundRect,0.237500X0.237500X-0.250000X0.237500X0.250000X-0.237500X0.250000X-0.237500X-0.250000X0*%
%ADD15RoundRect,0.191667X0.758333X-0.383333X0.758333X0.383333X-0.758333X0.383333X-0.758333X-0.383333X0*%
%ADD16RoundRect,0.200000X0.750000X-0.400000X0.750000X0.400000X-0.750000X0.400000X-0.750000X-0.400000X0*%
%ADD17RoundRect,0.237500X0.237500X-0.300000X0.237500X0.300000X-0.237500X0.300000X-0.237500X-0.300000X0*%
%ADD18FreePoly0,0.000000*%
%ADD19RoundRect,0.127500X-0.297500X-0.597500X0.297500X-0.597500X0.297500X0.597500X-0.297500X0.597500X0*%
%ADD20R,0.450000X1.450000*%
%ADD21C,1.000000*%
%ADD22R,1.300000X1.600000*%
%ADD23R,2.000000X1.600000*%
%ADD24RoundRect,0.237500X0.250000X0.237500X-0.250000X0.237500X-0.250000X-0.237500X0.250000X-0.237500X0*%
%ADD25RoundRect,0.237500X-0.237500X0.250000X-0.237500X-0.250000X0.237500X-0.250000X0.237500X0.250000X0*%
%ADD26RoundRect,0.250000X1.075000X-0.400000X1.075000X0.400000X-1.075000X0.400000X-1.075000X-0.400000X0*%
%ADD27RoundRect,0.250000X-0.400000X-1.075000X0.400000X-1.075000X0.400000X1.075000X-0.400000X1.075000X0*%
%ADD28RoundRect,0.250000X0.400000X0.625000X-0.400000X0.625000X-0.400000X-0.625000X0.400000X-0.625000X0*%
%ADD29RoundRect,0.237500X-0.250000X-0.237500X0.250000X-0.237500X0.250000X0.237500X-0.250000X0.237500X0*%
%ADD30R,1.500000X0.450000*%
%ADD31R,0.450000X1.500000*%
%ADD32FreePoly1,90.000000*%
%ADD33FreePoly2,90.000000*%
%ADD34RoundRect,0.250000X0.325000X0.450000X-0.325000X0.450000X-0.325000X-0.450000X0.325000X-0.450000X0*%
%ADD35R,3.500000X1.800000*%
%ADD36RoundRect,0.250000X0.412500X0.650000X-0.412500X0.650000X-0.412500X-0.650000X0.412500X-0.650000X0*%
%ADD37RoundRect,0.250000X0.537500X1.450000X-0.537500X1.450000X-0.537500X-1.450000X0.537500X-1.450000X0*%
%ADD38RoundRect,0.237500X-0.300000X-0.237500X0.300000X-0.237500X0.300000X0.237500X-0.300000X0.237500X0*%
%ADD39RoundRect,0.250000X-0.650000X0.412500X-0.650000X-0.412500X0.650000X-0.412500X0.650000X0.412500X0*%
G04 APERTURE END LIST*
D10*
G36*
X145923000Y-31623000D02*
G01*
X146177000Y-31750000D01*
X145034000Y-31496000D01*
X144780000Y-32258000D01*
X143510000Y-31623000D01*
X143510000Y-30988000D01*
X144399000Y-31496000D01*
X144653000Y-30861000D01*
X145923000Y-31623000D01*
G37*
X145923000Y-31623000D02*
X146177000Y-31750000D01*
X145034000Y-31496000D01*
X144780000Y-32258000D01*
X143510000Y-31623000D01*
X143510000Y-30988000D01*
X144399000Y-31496000D01*
X144653000Y-30861000D01*
X145923000Y-31623000D01*
D11*
X145034000Y-43180000D03*
X145034000Y-34290000D03*
D12*
X113919000Y-40994500D03*
X113919000Y-39269500D03*
D11*
X108966000Y-45720000D03*
D13*
X108966000Y-43180000D03*
X108966000Y-40640000D03*
X108966000Y-34295000D03*
D11*
X108966000Y-36835000D03*
D14*
X115570000Y-31091500D03*
X115570000Y-32916500D03*
D15*
X131650000Y-33020000D03*
D16*
X131650000Y-31345000D03*
X131650000Y-34695000D03*
X122350000Y-31345000D03*
X122350000Y-34695000D03*
D17*
X113919000Y-42952500D03*
X113919000Y-44677500D03*
D18*
X123698000Y-39654000D03*
D19*
X121773000Y-42954000D03*
X124353000Y-42954000D03*
X123043000Y-42954000D03*
X125623000Y-42954000D03*
D20*
X115611000Y-44110000D03*
X116261000Y-44110000D03*
X116911000Y-44110000D03*
X117561000Y-44110000D03*
X117561000Y-39710000D03*
X116911000Y-39710000D03*
X116261000Y-39710000D03*
X115611000Y-39710000D03*
D21*
X145034000Y-46228000D03*
X134874000Y-35052000D03*
X108966000Y-31242000D03*
X119507000Y-43434000D03*
X138684000Y-42926000D03*
X119507000Y-41402000D03*
X112014000Y-44450000D03*
X131572000Y-41148000D03*
X112014000Y-42418000D03*
X112014000Y-46482000D03*
X112014000Y-40386000D03*
D22*
X128544000Y-43254000D03*
D23*
X129794000Y-46154000D03*
D22*
X131044000Y-43254000D03*
D24*
X127865500Y-37084000D03*
X129690500Y-37084000D03*
D25*
X138684000Y-46632500D03*
X138684000Y-44807500D03*
D26*
X141478000Y-43408000D03*
X141478000Y-46508000D03*
D27*
X136678000Y-45466000D03*
X133578000Y-45466000D03*
D24*
X127865500Y-41148000D03*
X129690500Y-41148000D03*
D27*
X136678000Y-42164000D03*
X133578000Y-42164000D03*
D24*
X140311500Y-41148000D03*
X142136500Y-41148000D03*
D28*
X121767000Y-45466000D03*
X124867000Y-45466000D03*
D29*
X115720500Y-46355000D03*
X113895500Y-46355000D03*
D25*
X117348000Y-36472500D03*
X117348000Y-34647500D03*
D29*
X113942500Y-32512000D03*
X112117500Y-32512000D03*
D25*
X115570000Y-36472500D03*
X115570000Y-34647500D03*
D30*
X132274000Y-38100000D03*
X134934000Y-37450000D03*
X134934000Y-38750000D03*
D31*
X113284000Y-37144000D03*
X112634000Y-34484000D03*
X113934000Y-34484000D03*
D32*
X119380000Y-36546000D03*
D33*
X119380000Y-37846000D03*
D34*
X128007000Y-39116000D03*
X130057000Y-39116000D03*
D35*
X135930000Y-31750000D03*
X140930000Y-31750000D03*
D36*
X138645500Y-39116000D03*
X141770500Y-39116000D03*
D37*
X137562500Y-35814000D03*
X141837500Y-35814000D03*
D38*
X119353500Y-46355000D03*
X117628500Y-46355000D03*
D39*
X119380000Y-34328500D03*
X119380000Y-31203500D03*
D12*
X117348000Y-32866500D03*
X117348000Y-31141500D03*
M02*
