G04 #@! TF.GenerationSoftware,KiCad,Pcbnew,6.0.9-8da3e8f707~116~ubuntu22.04.1*
G04 #@! TF.CreationDate,2022-11-27T05:06:29+05:30*
G04 #@! TF.ProjectId,meshy-tron,6d657368-792d-4747-926f-6e2e6b696361,rev?*
G04 #@! TF.SameCoordinates,Original*
G04 #@! TF.FileFunction,Profile,NP*
%FSLAX46Y46*%
G04 Gerber Fmt 4.6, Leading zero omitted, Abs format (unit mm)*
G04 Created by KiCad (PCBNEW 6.0.9-8da3e8f707~116~ubuntu22.04.1) date 2022-11-27 05:06:29*
%MOMM*%
%LPD*%
G01*
G04 APERTURE LIST*
G04 #@! TA.AperFunction,Profile*
%ADD10C,0.200000*%
G04 #@! TD*
G04 APERTURE END LIST*
D10*
X127030815Y-32796815D02*
X127030815Y-33243185D01*
X129032000Y-30734001D02*
G75*
G03*
X128493185Y-30957185I0J-761999D01*
G01*
X127254000Y-32258000D02*
X128493185Y-30957185D01*
X129794000Y-31496000D02*
G75*
G03*
X129032000Y-30734000I-762000J0D01*
G01*
X127254000Y-32258000D02*
G75*
G03*
X127030815Y-32796815I538815J-538815D01*
G01*
X127030816Y-33243185D02*
G75*
G03*
X127254000Y-33782000I761999J0D01*
G01*
X128493185Y-35082815D02*
X127254000Y-33782000D01*
X128493185Y-35082815D02*
G75*
G03*
X129032000Y-35306000I538815J538815D01*
G01*
X129032000Y-35306000D02*
G75*
G03*
X129794000Y-34544000I0J762000D01*
G01*
X127000000Y-47752000D02*
X108458000Y-47752000D01*
X145542000Y-47752000D02*
G75*
G03*
X147066000Y-46228000I0J1524000D01*
G01*
X106934000Y-46228000D02*
X106934000Y-38735000D01*
X145542000Y-47752000D02*
X127000000Y-47752000D01*
X106934000Y-46228000D02*
G75*
G03*
X108458000Y-47752000I1524000J0D01*
G01*
X147066000Y-46228000D02*
X147066000Y-38735000D01*
X147066000Y-31242000D02*
X147066000Y-38735000D01*
X129794000Y-34544000D02*
X129794000Y-31496000D01*
X147066000Y-31242000D02*
G75*
G03*
X145542000Y-29718000I-1524000J0D01*
G01*
X127000000Y-29718000D02*
X145542000Y-29718000D01*
X108458000Y-29718000D02*
X127000000Y-29718000D01*
X106934000Y-31242000D02*
X106934000Y-38735000D01*
X108458000Y-29718000D02*
G75*
G03*
X106934000Y-31242000I0J-1524000D01*
G01*
M02*
